<mxfile host="app.diagrams.net" modified="2021-09-07T06:06:30.326Z" agent="5.0 (Windows NT 10.0; Win64; x64) AppleWebKit/537.36 (KHTML, like Gecko) Chrome/92.0.4515.159 Safari/537.36" etag="5fD04kDAmH_Ap40a-WOO" version="15.0.6" type="github">
  <diagram id="axNI7CqyV8kCOwjHSiza" name="Page-1">
    <mxGraphModel dx="1038" dy="523" grid="1" gridSize="10" guides="1" tooltips="1" connect="1" arrows="1" fold="1" page="1" pageScale="1" pageWidth="827" pageHeight="1169" math="0" shadow="0">
      <root>
        <mxCell id="0" />
        <mxCell id="1" parent="0" />
        <mxCell id="ntTl1n4FJI3rc7qS_6Iw-1" value="" style="group" vertex="1" connectable="0" parent="1">
          <mxGeometry width="480" height="50" as="geometry" />
        </mxCell>
        <mxCell id="ntTl1n4FJI3rc7qS_6Iw-2" value="班级管理" style="rounded=0;whiteSpace=wrap;html=1;" vertex="1" parent="ntTl1n4FJI3rc7qS_6Iw-1">
          <mxGeometry width="120" height="50" as="geometry" />
        </mxCell>
        <mxCell id="ntTl1n4FJI3rc7qS_6Iw-3" value="学生管理" style="rounded=0;whiteSpace=wrap;html=1;" vertex="1" parent="ntTl1n4FJI3rc7qS_6Iw-1">
          <mxGeometry x="120" width="120" height="50" as="geometry" />
        </mxCell>
        <mxCell id="ntTl1n4FJI3rc7qS_6Iw-4" value="常用功能" style="rounded=0;whiteSpace=wrap;html=1;" vertex="1" parent="ntTl1n4FJI3rc7qS_6Iw-1">
          <mxGeometry x="360" width="120" height="50" as="geometry" />
        </mxCell>
        <mxCell id="ntTl1n4FJI3rc7qS_6Iw-5" value="教师管理" style="rounded=0;whiteSpace=wrap;html=1;" vertex="1" parent="ntTl1n4FJI3rc7qS_6Iw-1">
          <mxGeometry x="240" width="120" height="50" as="geometry" />
        </mxCell>
        <mxCell id="ntTl1n4FJI3rc7qS_6Iw-6" style="edgeStyle=orthogonalEdgeStyle;rounded=0;orthogonalLoop=1;jettySize=auto;html=1;" edge="1" parent="1" source="ntTl1n4FJI3rc7qS_6Iw-4">
          <mxGeometry relative="1" as="geometry">
            <mxPoint x="420" y="110" as="targetPoint" />
          </mxGeometry>
        </mxCell>
        <mxCell id="ntTl1n4FJI3rc7qS_6Iw-8" value="" style="rounded=0;whiteSpace=wrap;html=1;" vertex="1" parent="1">
          <mxGeometry x="40" y="110" width="460" height="40" as="geometry" />
        </mxCell>
        <mxCell id="ntTl1n4FJI3rc7qS_6Iw-14" style="edgeStyle=orthogonalEdgeStyle;rounded=0;orthogonalLoop=1;jettySize=auto;html=1;" edge="1" parent="1" source="ntTl1n4FJI3rc7qS_6Iw-9">
          <mxGeometry relative="1" as="geometry">
            <mxPoint x="110" y="190" as="targetPoint" />
          </mxGeometry>
        </mxCell>
        <mxCell id="ntTl1n4FJI3rc7qS_6Iw-9" value="导出行政班学生名单" style="rounded=1;whiteSpace=wrap;html=1;" vertex="1" parent="1">
          <mxGeometry x="50" y="115" width="120" height="30" as="geometry" />
        </mxCell>
        <mxCell id="ntTl1n4FJI3rc7qS_6Iw-10" value="" style="rounded=1;whiteSpace=wrap;html=1;" vertex="1" parent="1">
          <mxGeometry x="190" y="115" width="100" height="30" as="geometry" />
        </mxCell>
        <mxCell id="ntTl1n4FJI3rc7qS_6Iw-16" style="edgeStyle=orthogonalEdgeStyle;rounded=0;orthogonalLoop=1;jettySize=auto;html=1;entryX=0.5;entryY=0;entryDx=0;entryDy=0;" edge="1" parent="1" source="ntTl1n4FJI3rc7qS_6Iw-15" target="ntTl1n4FJI3rc7qS_6Iw-18">
          <mxGeometry relative="1" as="geometry">
            <mxPoint x="338" y="660" as="targetPoint" />
            <Array as="points">
              <mxPoint x="80" y="660" />
              <mxPoint x="60" y="660" />
            </Array>
          </mxGeometry>
        </mxCell>
        <mxCell id="ntTl1n4FJI3rc7qS_6Iw-15" value="" style="shape=image;verticalLabelPosition=bottom;labelBackgroundColor=#ffffff;verticalAlign=top;aspect=fixed;imageAspect=0;image=data:image/png,iVBORw0KGgoAAAANSUhEUgAAApAAAAFmCAYAAADalqrJAAAgAElEQVR4Ae3dy4scSWIH4Plr6q8Tc59hMPZq1w/w0eo924c92kaCBV92TzY+tQ7GhjlKGHRoFtmGAcGgSROZGZWvyFd1Zefrayg6KzMiMuKLlOrXkdXV3/zN3/xNVn/84z/+Y/bly5fMFwECBAgQIECAAIEgELJhyIgxM34TN+J34dGFQoAAAQIECBAg0BYIGTHmxWuA/Ou//uvsr/7qr9plPSdAgAABAgQIECCQC4SsGDJjHiDDk/jgQ4AAAQIECBAgQCAlEPPiN3Ejfk8Vto8AAQIECBAgQIBAzIsCpGuBAAECBAgQIEBgkoAAOYlJIQIECBAgQIAAgSiQDJB/+Zd/GY/7ToAAAQIECBAgQKAhELJiCJHXW9hhx29+85tGIU8IECBAgAABAgQIRIGQFUNmzANk2BAgI43vBAgQIECAAAECKQEBMqViHwECBAgQIECAQK/ANUDWVx9//etf91ZwgAABAgQIECBA4NwCISuGEPlNDJBhx+vXr8+tYvQECBAgQIAAAQK9AiErhswoQPYSOUCAAAECBAgQIFAXaATIsBQZdliBrBPZJkCAAAECBAgQqAvEvPhNCI8CZJ3GNgECBAgQIECAQEqgESDj+x+tQKao7CNAgAABAgQIEAgCAqTrgAABAgQIECBAYJaAADmLS2ECBAgQIECAAIFrgAy3r+Mt7F/96ldkCBAgQIAAAQIECCQFQlYMIfIbATLpYycBAgQIECBAgEBLQIBsgXhKgAABAgQIECAwLCBADvs4SoAAAQIECBAg0BIQIFsgnhIgQIAAAQIECAwLdAJk2PEXf/EXw7UcJUCAAAECBAgQOK1AyIohM15/iWZXAfLT2+zV5ZI9vD/t/Bn4CgJP715lF9fdCvJOSYAAAQJbEdhmgAzB8Nu32dOY0qoB8jF7uFyyV+9Gezk2CscbAk/Z228v2WXK/DfqpZ88vhn4ASNcP28e0xXLvUVYfJW9/VQVuzlAltfrpe+cY8erLlRb7x/uF2ZX/fdUDckWAQIECGxfoBMgw47wWPWrfFGsQkQR1sKqz5zHdWUyf2F8yIajQhjxnFDYLlsGn4l9bAbP28ZXWdTH9ty2onG9zSyLoak6Zyw38r0nLKWCWXHNDQXIcmzJNsOxZp+z7Cl7fBNWC5sBsHGe5LF49af7Ei2u11csPvg93Va9StFuewz1Eu3tss2kR7vs+PMQti+Xh+ztp/BDUdn22PV8p6A/3jslCBAgQGBLAjEvXm9hxx2rdzKuxgy9QE1dMeltq/0CXASUZrjrk0iXHQsBxYt0KtD0nSfL8jpDDv1VqyMpqxmrV2Pjqk4Ut9q2cX/xvWgv5VDWS453IEB+eswekiuX6faK8w+sToZu9vhMqnsdbnn+niBWXWvD5UKw6/wAFH/Q6ml7MOy3fVPXRxhD3/7yh63e1dTr+G0QIECAwByBDx8+ZOHxpz/9abRaKBPLjxa+c4GYF7cXIMNA3z9kr968zR7D7cO5L5Y9L5DVqmbVZrWSlA6FafO+sunAEtpIB48yFN0SAhp1EgGj3vFUEOgJSPVqcbvo+8g5YuH8e+nQszpWtHfHABnOWY6xE2ry/bVzleWq8NboePlkLNBNXXntc2hdP2Eu2tds3bFzrGi3unabY5g3X60+1r1Kq/Z5+uev2Q/PCBAgQGCewB/+8Ifsb//2b7Pf/e532devX3srh2OhTCj7xz/+sbfcUge2HSDHRt3z4tZbLX+RfigC6dRbdGVIi2GjeOFMhYd6uIqhMIaWKoy0X4in3DYfW4HshoV4/lQ/p+yL/a4k+8c90t5LBsgypIf3z3ZW66qhFEGzE8jqBWLYr89pdTxadOeyKlNttcLZ9UA9QBbb6fbK+q3+5n1o7bs2ff1hJd3/erl8O/9BoipbXG/lv5Pkv7Hy+uqZ2077dhAgQIDALIF/+qd/yoPh73//+9564VgIj//8z//cW2bJA40AGf6mYdyx5Env1nbyxW1i68nVt/qL+lg742WL29UxYHVDWXGGWjtln+q3HkOouAbIcrzt430BMobe/Dwpq5RBvq/b1+45xnxqwSk/d7PNor3mvqLFdGCqWzVXGMvyjdXYaD7jez2MlVYNv9pwi76P3P6+lq85XPeFjWreh20THj1zVG9+uM1ayfbc5G1XYTK5qjvh/LUz2CRAgACBmQL/+7//m/393/99HhD/9V//tVM77Avh8R/+4R+y//u//+scf4kdMS/mt7C3ECDji3MMSdcAdUtAqIeChub4i3qjePJJFQCah4cDTXqVqdlC+9k1QLYP9D5P9O3FA2Stc3ngaAauYp7vGCCfsRrW9C3smiG1Npbr6l5zPM0S9Wdj19pj/lvnr96F77Xgdm2iHSATc3stW21MDZDtf2+dXzgqr5v6ezCbPxgVIf2W67rqrS0CBAgQaAt8/Pgx+7u/+7s8KP7nf/7n9XDYDuExHPvv//7v6/6X3thcgLwCpALP9eD0jfYL5PAL3bQX5+LsrbLXF9rwgpoKRqFWGU5iGG6HnjJoxfAcvl8DdAjDjXMMvXC3+hZOnfJMBLvivaaJ/qfKTpyGInA0w1F7XupjHt1uuPUFtImdC7MSfvu4/GEj71fvDx5Fm7Hvw9dSPH9f/1pzFOe2MbbQRitAvg8fPVR8xFXsx6hXvN5q37urq+E8/fMeztGtE2/1J+rF4ftOgAABAjcL/Md//EceFkNgDGExPMJ2ePzXf/3Xze3eo+KOAmT5Qlp7Eex/4WyGlRyqFoBufeFtvoC2AkDPbNTDSU+RBXa3guoks/rt3nQgSK089c/BeHvpgbcCU6NQOa5OyIqF5lwj6UAUWxr6Hq+fuwbIcMLaNVqdvxxTYsxFPxLX+nWVNH2sarvaCm0lxxP79CZ83mS7vbH5qNq3RYAAAQK3Cfzbv/1bHhh/+9vfZuERwuO///u/39bYHWvtL0AmXkjrHr0vqvGFsPNXa7ov0NNCXyuk9fRrrK3bQ1k9oJXb1z4UfWsG3mKczX11uXI7d0oHyETpBXaV8zGyCnjriSvvdhhqtVheL9MCcnsu6m2X4+kJ8c35SI293Hed26qfvdf6zABZtJMeQ3EsXA+Ja6r331TVR1sECBAg8HyBf/mXf7muPIbtLXwJkPEWYe0Feij0VQGkeMGtB4D0C3H7hbl8PjUgpW4933LlxEBUG+ctzUyrkwgb9YrlmOp21eFUiKodzf+M4PyAW83N/LrV2Yut2FZyxa5dOHF9FUV6jDo2SwfIsv3kn2aMx4pAXIw7huOi//HWf2fYdhAgQIDA3QQEyDmUneAUX8x6AlljhSe+yNVO2Lda0nnBbr4nLm+h05ewtycA1E6Zl6q9v651aNLT5ov2pCrJQkXwTbgkS1c724H5thW5VmhOmFdnLOe5J2AXHjNDYN/cVyedtbVogIzvybzeLi49EsF/6NoYOjZ9sGVIvJ676ktxXcych+knVpIAAQIESoFwuzrctq7fwg63tdf+uq5Aht/A3sJvYV9BOqGtevG6lkls9L5wpkJEeY72e7vyF8d6gOn0JZz4ngGyHFsjBE8Jyq1gdg0fM+oOnbNukLDu3zVic8cAGcPcs4JtaZBeEe2OMp5zkRXIcLrgE35RJv/7203LeO57jDe1ehjbDxZxuzHO67+Z299D2hW1hwABAgRSAuEXZeIvzbR/iSb8gs2aXycNkOXKSh4cuqsondW6PHy2yzVf2PsmsRNGkwXLANkIbIn2E/0YbX8wrIXOxPDaHl+yo8VvLF9XpNJlRsP1YJ9SFtV5ilAzra/XWgm367EbNpLBqredcjwds8T8JtuYWq5ZuejjxBXn8oerEEqrEF2ctx0yi38b5Q8onTE1++AZAQIECNwuEALj2Mf4hI/6WetrHwEy/EnD/HPypq6sdV84Gy/64aNQwt9N7nsBrK2yxJWe6oU1TlXzhb3xwjq0qlc/dg2MqdDUbD8/ayIIDQbI+jiSY43hcfpnGj6Vv0zR/1FFoaeJvke28F2AHDe6eo1YXss1N6YGyHS5eF3Ug3rRj2vIjKHzeg03z+8ZAQIECNwuED4cPHxIeFh9HPog8fBh4+FDx9f42nyALAJcCIR9KzlNttQLYgx3r759df28v2atW55Ne2EfDHjX0y4VIJ+yp3CO+GJfD6/X7XpIuHZodKNw7qk7GBBfPkAO9nV0pN0CRXvTQ/fb5A8r066fGLYbt5G7XersSf076BTq2XH99/Iuv3pq1097vqtQObd/Pae2mwABAgSyLP/zhCE8TvlThuHPHq7xtd0AGUPPdYXjtgAZXwzjC1zxvP1CeAv9tACwaoBMDCuGn7iymn+/GicqTNlVX+mMwXSozVT5WG/S95H5S7WfXIHtDi7pM6lPidXx/JxxNS9xvHHLuNuXsOfW6/X2APmUPb55db2V3f73k+xl/Lc60TjZhp0ECBAgkAv88Y9/zFcef/e732Vfv37tVQnHQpkQNP/whz/0llvqwGYDZP7C1XhB6gmQibDQuN386W32EFdSomKiTiNQ9QSGvN34YpmX6d4qj6eI37cQIGMIiGOs+7QDU/1YHMOWvhf9HQmQW+pw78p59weQ9lzE+Yo//MwZ1u0Bcs5ZlCVAgACBewt8+PAhC48//elPo02HMrH8aOE7F9hsgLzzODfeXOoW9kCXWwG4GTCq24oxgEwOhdd29xTQBpwcIkCAAAECBBYRECAXYdUoAQIECBAgQOC4AgLkcefWyAgQIECAAAECiwgIkIuwapQAAQIECBAgcFwBAfK4c2tkBAgQIECAAIFFBATIRVg1SoAAAQIECBA4roAAedy5NTICBAgQIECAwCICAuQirBolQIAAAQIECBxXQIA87twaGQECBAgQIEBgEQEBchFWjRIgQIAAAQIEjisgQB53bo2MAAECBAgQILCIgAC5CKtGCRAgQIAAAQLHFRAgjzu3RkaAAAECBAgQWERAgFyEVaMECBAgQIAAgeMKCJDHnVsjI0CAAAECBAgsIiBALsKqUQIECBAgQIDAcQUEyOPOrZERIECAAAECBBYRECAXYdUoAQIECBAgQOC4AgLkcefWyAgQIECAAAECiwgIkIuwapQAAQIECBAgcFyBa4AMG3/+53+e/dmf/Vn+OO6QjYwAAQIECBAgQOA5AgLkc/TUJUCAAAECBAicUECAPOGkGzIBAgQIECBA4DkCvQHyf/7nfzIPBq4B14BrwDXgGnANuAZcA+1roDdAPieVqkuAAAECBAgQIHBcAQHyuHNrZAQIECBAgACBRQQEyEVYNUqAAAECBAgQOK6AAHncuTUyAgQIECBAgMAiAgLkIqwaJUCAAAECBAgcV0CAPO7cGhkBAgQIECBAYBEBAXIRVo0SIECAAAECBI4rIEAed26NjAABAgQIECCwiIAAuQirRgkQIECAAAECxxUQII87t0ZGgAABAgQIEFhEQIBchFWjBAgQIECAAIHjCgiQx51bIyNAgAABAgQILCIgQC7CqlECBAgQIECAwHEFBMjjzq2RESBAgAABAgQWERAgF2HVKAECBAgQIEDguAIC5HHn1sgIECBAgAABAosICJCLsGqUAAECBAgQIHBcAQHyuHNrZAQIECBAgACBRQQEyEVYNUqAAAECBAgQOK6AAHncuTUyAgQIECBAgMAiAgLkIqwaJUCAAAECBAgcV0CAPO7cGhkBAgQIECBAYBEBAXIRVo0SIECAAAECBI4rIEAed26NjAABAgQIECCwiIAAuQirRgkQIECAAAECxxUQII87t0ZGgAABAgQIEFhEQIBchFWjBAgQIECAAIHjCgiQx51bIyNAgAABAgQILCIgQC7CqlECBAgQIECAwHEFBMjjzq2RESBAgAABAgQWEdhcgPzy5Uv28ePH7Mcff/RgcKprIFz34fr3RYAAAQIEti6wuQAZXkQ/f/68dTf9I3B3gXDdh+vfFwECBAgQ2LrA5gJkWHn0ReCsAq7/s868cRMgQGBfAgLkvuZLbw8uIEAefIINjwABAgcRECAPMpGGcQwBAfIY82gUBAgQOLqAAHn0GTa+XQkIkLuaLp0lQIDAaQUEyNNOvYFvUUCA3OKs6BMBAgQItAUEyLaI5wRWFBAgV8R3agIECBCYLCBATqZSkMDyAgLk8sbOQIAAAQLPFxAgn2+oBQJ3ExAg70apIQIECBBYUECAXBBX0wTmCgiQc8WUJ0CAAIE1BATINdSdk0CPgADZA2M3AQIECGxKQIDc1HTozNkFBMizXwHGT4AAgX0InCtAfnqbvbq8yt5+mjo5j9nDhPKPby7Z5du32dPUZs9a7v1Ddrk8ZI+rjv8pe/ttqw/huuibv/cP2at3LzezAuSqF4eTEyBAgMBEgXMFyCzLpoS9p3evssvlkl0mhMfcOQ+mlxcNGhPnd0PFQnC7ZJc394mP+Rz1hb7BUZf9aNQt9nWCYjmvL/nDgQA5OHkOEiBAgMBGBI4fIGMIyANhCIXtR1iNKkNFeaw3SHTqttsaej5n5XPq1RFWSJuhLA/ItX52xlI23SyX7luzTDogV2G7HHtfQMxXH4d80sf6+v/06W1n7FPVsqxwa7SdXyd1h3TgLUxaK5jTTzxaUoAcJVKAAAECBDYgcPwAGZBDOGisOIWdIUTEINCzArWBCRrqQh5maoGt/TwrQ1sjKCVWYYsQWA9P5Uptre1UW51VwBjW6/XyARSB7eF9ajRDx1Ll6/sSQbB+eGg72LSuieB3tUpeM0WDHeeh88w8JkDOBFOcAAECBFYROEeAjCuMtWBThIC32VP+fsgZATKGpNoqX3dVs1pNS4emO8x13o9W6HvfvT2cj7MelBL1spTPhLae3oe12+ZXEUZjMC+ODQeu5wTILCuCbfN8zR5VzzqrpRPnMM5vI1xOfXtDdfpJWwLkJCaFCBAgQGBlgZMEyHIVslxx7IacuQGyGdzSc/jMYJRu9Lq3s/p3PdLcaI+1r167XLOV4tmUMkWgq3zG6zzTKd4ar/1wkOp72Nc39r7y1f729dF+XpV87pYA+VxB9QkQIEDgJQQOHiCLF/q4gtT3/dW7x/wXPK4rTEPym1iBnB5gmgGu9EiFrTyIVcEvRdBsK1UirgjGdorz5auwMejNXPUbW8HNVzfzNuM5e/p11wD5nDDa379wRIAc9nGUAAECBLYhcPAA2UVO304dCZr1W8DdJifvqcJOdYu7L9T27s/7ElbtxgNT99b0QPBM3tquD20gfNaK5WNMeeUBMnWr+TkrkEXdEPzT81rrWGNzZL5rIbf3h4re8TRONPuJADmbTAUCBAgQWEFAgMzR28EqEWpmrjy2A+DYStqsuR8Ne0VrRWCth7b2OGtnLcfX189uW7W65WaxQtkTbHsDV8K623R6T95meb76drr05L3FOELIr9u1qk+cg1at0acC5CiRAgQIECCwAYHjB8g8WAyt+IWQ0A5WiVBzc2BItPXcic/7MhBuyo+p6X6OZXuctY70jq/of7etWt34SziXS9YXQPt/2eVWn2Is1edKtp/X+zd1O451YBzXpkLZnrB8LTN/Q4Ccb6YGAQIECLy8wPEDZMs0fauzHWLaz+Mv4dQCw0gwrW59Jtpq9Wn206EAmR/r+8s4AyErtYI32FbsdTG+wdW6UDRvPxV6b/RJ9Te1L3Zz9PuATbJu6HftekiWmb9TgJxvpgYBAgQIvLzAKQJk/Zc/YoAM36+rZZ3Vt0SoaZfpDURFEFk+QCbCS96n5geLty+pfPyJ9yjWjfI6E9rKP18zvF8w0V7eRgygtfcUtm/tT3l+nafrYMrQmvhloDi/16LXjbLOs/pSC8Dt6+F6nudtCJDP81ObAAECBF5G4PgBsgwxMdBdA0YtAOThqRGCNh4g81vU7QA5cQUtuUrXrtt+nr4Y+8JounTf3oR1X9Fyf37e3vcnzm+vaLYd/Ec6kV8/tUA5UnzqYQFyqpRyBAgQILCmwOED5DUwlsr153lwfPM28RE+iRBSC5x5U3GFrmdFKwbW+Gfzuqtoz5n2RNhp96+3+TIc1gJzZ/VxUlsJo95zDh2Y107R13Z4brWfDMmtMp2nCdNOmWpH94eO6thztgTI5+ipS4AAAQIvJXD4ANmGrAfIcKwTnvIKiVDTDlV5SJmwAtWu1+7Qjc87ASY/T/8vC1WBNh91Hpqr28etcUxqqzCq2midO3F7OT3UhHW6YDlXtbce9JTLR/ju1fBvUXfqFv1oOnUKlTvmhc2+VlL7BciUin0ECBAgsDWBcwTIRiCqr171hZfE/hlBsAiltUA1OUzNuDxm9GdGqysUTVgnelHctp4WHmP1ok59vuOR8ntnFbkVpFvFr08XtBcgr8o2CBAgQGDDAucIkBuegOd0rb2a+py21qs7HiDTq8TTehzD/D3fQrCkuwA5bV6VIkCAAIF1BQTIdf2fefYifFWfhfjM5lQfFShWNSeuVI621i0gQHZN7CFAgACB7QkIkNubEz06sYAAeeLJN3QCBAjsSECA3NFk6erxBQTI48+xERIgQOAIAtcA+cMPP2Th8f3332fffffdamPzAroavRNvQMD1v4FJ0AUCBAgQGBW4BsjXr19n4RF3jNZcqIAX0IVgNbsLAdf/LqZJJwkQIHB6gZgXvxEgT38tANiAgAC5gUnQBQIECBAYFRAgR4kUIPByAgLky1k7EwECBAjcLiBA3m6nJoG7CwiQdyfVIAECBAgsILC5APnhw4fs8+fPCwxVkwS2LRCu+3D9+yJAgAABAlsX2FyA/Omnn/IX0bAS48HgTNdACI/h+vdFgAABAgS2LrC5APnzzz9nHgzOfA1s/T8N/SNAgAABApsLkF+/fhUghejTXgPh+vdFgAABAgS2LrC5ABnAfvnllyy8kHowONM1EK57XwQIECBAYA8CmwyQe4DTRwIECBAgQIDAWQUEyLPOvHETIECAAAECBG4UECBvhFONAAECBAgQIHBWAQHyrDNv3AQIECBAgACBGwUEyBvhVCNAgAABAgQInFVAgDzrzBs3AQIECBAgQOBGAQHyRjjVCBAgQIAAAQJnFRAgzzrzxk2AAAECBAgQuFFAgLwRTjUCBAgQIECAwFkFBMizzrxxEyBAgAABAgRuFBAgb4RTjQABAgQIECBwVgEB8qwzb9wECBAgQIAAgRsFBMgb4VQjQIAAAQIECJxVQIA868wbNwECBAgQIEDgRgEB8kY41QgQIECAAAECZxXYXID88uVL9vHjx+zHH3/0YLCbayBcs+Ha9UWAAAECBM4gsLkAGV6IP3/+fAZ7YzyQQLhmw7XriwABAgQInEFgcwEyrDz6IrBHAdfuHmdNnwkQIEDgFgEB8hY1dQgkBATIBIpdBAgQIHBIAQHykNNqUGsICJBrqDsnAQIECKwhIECuoe6chxQQIA85rQZFgAABAgkBATKBYheBWwQEyFvU1CFAgACBPQoIkHucNX3epIAAuclp0SkCBAgQWEBAgFwAVZPnFBAgzznvRk2AAIEzCgiQZ5x1Y15EQIBchFWjBAgQILBBAQFyg5OiS/sUECD3OW96TYAAAQLzBQTI+WZqEEgKCJBJFjsJECBA4IAC5w6Qn95mry6X7OH9AWf2rkN6yt5+e8levXu6a6uzG3v/0OnD45u++Qt9fsgeZ5/k9goC5O12ahIgQIDAvgTOHSCzLAsB5HJ52aCxr0sky7L3D9nl8ip7++kePX/MHm4M7U8hQLbr5n3rzl8xr33h8h7j6LYhQHZN7CFAgACBYwocPkDGIHG5hKB44+PN/dexnt69aoaycjW06mM3FOWXYLtcqm/tMmMBOZT/9m2WXl8sVh+rfk017Ov/U/bYHvuMf1uFW7PtfI7rDqnAW5osuYoqQM6YSEUJECBAYNcChw+Qm5ydPMzUVvTaz7MY2ppBKStDUHXLvVjNu9TD09S2SpgikF2yS0+AzI/fcGzMPRUEx+oUxwubyiDLCpfKKgTKxvHYcMcmHrjPdwHyPo5aIUCAAIHtC5wqQM5ajewJTfeY0s6K2afH7LF9e7gTFsvb7fWwGDrTXm2b2FZRr7aamBrvSOAaCpfjTkUQnLYiWAblW1eQayuwHfvxjk4uIUBOplKQAAECBHYucL4A2Q5giQl8XjBKNNjYNfU9gEW5KmD11WuXa5ysfNItUx9jfbuq3a1THSu20vXapfqex1XW2kpsX9Gsb+y9FaoD7fdItp9XJZ+9JUA+m1ADBAgQILATgfMFyKmrWKkVuXtM6uQA0wpw7ZXGa1/KIDYYjFttXesWG8kgGM6XG8SgV1utnGI45leusObvrRzse+jjHQPkc9pqubWfCpBtEc8JECBA4KgCpwqQN09iPexMCU89ZcL78vKwNhqYEremB4Ln6G3Z3vBZiCQD5BWr/1bzcL1rA8mNvG64tTxym7xTOR/LlDBbvSey2Ub/eJrl5j8TIOebqUGAAAEC+xQ4RYCc9d7HdvgbW0mbOe+jYS+0VwbW6vZ1DJTpUJS32dfPVFutPg8Hwf7ANVyvdZLG03JVMw/S9e1GoRueFCuVYVWzYddqadIctOpMeSpATlFShgABAgSOIHCeADll1a81o7cHpFZDtachvAyFm2Jl7pI1frM61L9hBbK3rVp/wubwOBcIkO0V0fbzVv+mPL2OtS9I1xrJy95wPdSaSG4KkEkWOwkQIEDggAInDJDlild7pfH6vFrlGw5Wt10NQwEyXxlrf1B2PE1vyEqv4A22Fdssvw+P894BMtXf1L5WJ4ee9tqkKwmQaRd7CRAgQIDAVIHTBsjkKmAeRJYPkJ3VxevnPg78RnJ5K7r7+YbtX5Apw9iMvxyTCpAxgM7/APHa+xMTq4H5uVJ9G3gvZFGn1u417E/fV5/vfGxWIKf+H6EcAQIECBDoCAiQdZIXCJDJ1a9JK2g9q3Ttuu3n9fH1bKcCZE/Rxu7Z9Ubejzm7vdib1rzF3X3fQ4CsB8q+cnP3u/8O+60AABcYSURBVIU9V0x5AgQIENirwGkDZP/K2rIrkKn3Mk5eEcuDUv2vrLRXH3s+bHzk6rw1uM2rV/6Cy+DKX09IHul/yrS/StGP7kpuf42pRwTIqVLKESBAgMDeBU4bIKesQE0OdrOugm6Ayc/Te1u2CrT5acoQGQNwexyz2ir7PS8IVoOdXq8Mj4lb2lVrcaso2x5XPJr6nvej9tdmUmWu+2auVl7rTdgQICcgKUKAAAEChxA4YYAcmrcy6FzD3MB7EoeaGTm2TDAdOekChycFyPK2dd/f2k52K9bpXa2M7/Os3gM5NXAuaS9AJmfTTgIECBA4oMApAuTm5m3gF0Y219eBDo0HyPmridXp5qxaVrUGtxZ2FyAH9R0kQIAAgQMJCJArTWZx23WZFc6VhrTt05armlNXKm8ZjAB5i5o6BAgQILBHAQFyj7Omz5sUECA3OS06RYAAAQILCAiQC6Bq8pwCAuQ5592oCRAgcEYBAfKMs27MiwgIkIuwapQAAQIENiggQG5wUnRpnwIC5D7nTa8JECBAYL6AADnfTA0CSQEBMsliJwECBAgcUECAPOCkGtI6AgLkOu7OSoAAAQIvLyBAvry5Mx5UQIA86MQaFgECBAh0BATIDokdBG4TECBvc1OLAAECBPYnsLkA+eHDh+zz58/7k9TjUwuEazZcu74IECBAgMAZBDYXIH/66af8hTis5ngw2Ms1EMJjuHZ9ESBAgACBMwhsLkD+/PPPmQeDvV4DZ/hPwxgJECBAgMDmAuTXr18FSCF6l9dAuHZ9ESBAgACBMwhsLkAG9F9++SULL8YeDPZyDYRr1hcBAgQIEDiLwCYD5FnwjZMAAQIECBAgsEeBa4D84YcfsvD4/vvvs++++26PY9FnAgQIECBAgACBFxC4BsjXr19n4RF3vMC5nYIAAQIECBAgQGCHAjEvfiNA7nD2dJkAAQIECBAgsIKAALkCulMSIECAAAECBPYsIEDuefb0nQABAgQIECCwgoAAuQK6UxIgQIAAAQIE9iwgQO559vSdAAECBAgQILCCgAC5ArpTEiBAgAABAgT2LCBA7nn29J0AAQIECBAgsIKAALkCulMSIECAAAECBPYsIEDuefb0nQABAgQIECCwgoAAuQK6UxIgQIAAAQIE9iwgQO559vSdAAECBAgQILCCwOYC5JcvX7KPHz9mP/74oweD3VwD4ZoN164vAgQIECBwBoHNBcjwQvz58+cz2BvjgQTCNRuuXV8ECBAgQOAMApsLkGHl0ReBPQq4dvc4a/pMgAABArcICJC3qKlDICEgQCZQ7CJAgACBQwoIkIecVoNaQ0CAXEPdOQkQIEBgDQEBcg115zykgAB5yGk1KAIECBBICAiQCRS7CNwiIEDeoqYOAQIECOxRQIDc46zp8yYFBMhNTotOESBAgMACAgLkAqiaPKeAAHnOeTdqAgQInFFAgDzjrBvzIgIC5CKsGiVAgACBDQoIkBucFF3ap4AAuc9502sCBAgQmC8gQM43U4NAUkCATLLYSYAAAQIHFBAgDziphrSOgAC5jruzEiBAgMDLC5w7QH56m726XLKH9y8Pv68zPmVvv71kr949rdvt9w+dPjy+6Zu/0OeH7PEFeyxAviC2UxEgQIDAqgLnDpBZloUAcrm8bNBYdcZvOfn7h+xyeZW9/XRL5Xadx+zhxtD+FAJku27et+78FfPaFy7bfbrPcwHyPo5aIUCAAIHtCxw+QMYgcbmEoHjj402xjnVzW2X9+uXw9O5VM5SVq6FVH7uhKK/fLpdoO2uX6QnIRR8qk/RKbLH6WPWrKj+8r6//T9lje+x1mJHtos/NtvN5qTukAm9psuQqqgA5MnkOEyBAgMBhBA4fIDc5U3mYqa3otZ9nMbQ1g1IMhlXQK1bzLvXwNLGtThDLQ1d3xS4v9+3bLHXzeujYmHvn/GMVrscLm8ogywqXyioEysbxWLdjEw/c57sAeR9HrRAgQIDA9gVOFSBnrSD2hKZ7TGlnxezTY/bYvj2ch51mEOrUC51pr7ZNait9Gzlvvz7ukcD1nACZlSF52opgGZRvXUGurcAmDe8xqVmWCZB3gtQMAQIECGxe4HwBsr5a1zM9zwtGPY1ed6fD2/XwdaMoVwWsvnrtctcGahutMj3vG2yG0VadWmtx83lOcZW1thIbG+587xt7p2B3R3us7efdGjfvESBvplORAAECBHYmcL4AOXUVq74Sd89JnRxgWgEur5cKW2UQGwzGzbY6K41xfPVVz3C+3CAGvanvfSzLjfmV58rfRznY99C5OwbI57QVnXq+C5A9MHYTIECAwOEEThUgtzB7+ardaGBK3JoeCJ6jt2Vb4bO/fCqoFQGyWgmtFJ+zApnXDbeWR26TV2crt/KxTAmz1Xsim230j6dZbv4zAXK+mRoECBAgsE+BUwTIPDBNXXlslxtbSZs57/3hrdZQuTrXCG1jAbKvn4m2+vvQXKksetQfuG4PkOWqZh6k69s1g5s2i/6HVc2GXaut/vG3Cs58KkDOBFOcAAECBHYrcJ4AOWXVrzWNtwekVkO1pyG8DIWbYmXukjV+szrUHwuQifH1tdUfoF5oBbK1Itp872UNa8bmdax9QbrWVl424VUrctOmAHkTm0oECBAgsEOBEwbIcsWrvdJ4fV7d+syDxoRAMmfehwJkHuzaH5QdG2+Hrrg/fuRPKxANtZUfS42rXK1sfgTOvVcgUyuOqX3XAY5v9NqkqwqQaRd7CRAgQIDAVIHTBsjkKmBrlW+pANlZXYwhcOivvSTDXZjm9m3nGJBTv3BTXBb5uGofbXO9WGpBLAbQ4Q8LH3kvYiKkFudO9C0fX2J/lmVFnZFzXX8ASJerz3c+tlbgvho8Y8MK5DPwVCVAgACBXQkIkPXpeoEAmYehdnipBbd6d5rbPat07brt581Gimc9YbR3ZTLVRgx2iZDYU7z8wO/+W/i5zZz24ola8xZ3930P46wHyr5yc/cLkHPFlCdAgACBvQqcNkD2r6wtews79V7GyStieVCqf7h4e/Wx/Nve7YCauDrzc9ZXIacEz1Y78wJf+Qsug33rCcmt83aezgqQqfd5dlq8aYcAeRObSgQIECCwQ4HTBsgpK1BVsCvDz8ht0v5QGm6rxmDaDTBFmEvfeq3qlVdXGSLjudrjmNNWs2z69vHQNT09QJZ+k1YXi7LtcY324+o7VHL4l5FGao4eFiBHiRQgQIAAgYMInDBADs1cOyjOD1VDrcdjVTCNe/b5fVKALG+XFx9KPnGcsU7vamV8n2cVuqcGziXtBciJ86sYAQIECOxe4BQBcnOzNPALI5vr60CHxgPk/NXE6nRzVi2rWoNbC7sLkIP6DhIgQIDAgQQEyJUmMw9fQ791vVK/DnvaclVz6krlLQ4C5C1q6hAgQIDAHgUEyD3Omj5vUkCA3OS06BQBAgQILCAgQC6AqslzCgiQ55x3oyZAgMAZBQTIM866MS8iIEAuwqpRAgQIENiggAC5wUnRpX0KCJD7nDe9JkCAAIH5AgLkfDM1CCQFBMgki50ECBAgcEABAfKAk2pI6wgIkOu4OysBAgQIvLyAAPny5s54UAEB8qATa1gECBAg0BHYXID88OFD9vnz505H7SCwZYFwzYZr1xcBAgQIEDiDwOYC5E8//ZS/EIfVHA8Ge7kGQngM164vAgQIECBwBoHNBciff/4582Cw12vgDP9pGCMBAgQIENhcgPz69asAKUTv8hoI164vAgQIECBwBoHNBciA/ssvv2ThxdiDwV6ugXDN+iJAgAABAmcR2GSAPAu+cRIgQIAAAQIE9iggQO5x1vSZAAECBAgQILCigAC5Ir5TEyBAgAABAgT2KCBA7nHW9JkAAQIECBAgsKKAALkivlMTIECAAAECBPYoIEDucdb0mQABAgQIECCwooAAuSK+UxMgQIAAAQIE9iggQO5x1vSZAAECBAgQILCigAC5Ir5TEyBAgAABAgT2KCBA7nHW9JkAAQIECBAgsKKAALkivlMTIECAAAECBPYoIEDucdb0mQABAgQIECCwosA1QP7www9ZeHz//ffZd999t2KXnJoAAQIECBAgQGDLAtcA+fr16yw84o4td1rfCBAgQIAAAQIE1hOIefEbAXK9SXBmAgQIECBAgMCeBDYXIL98+ZJ9/Pgx+/HHHz0Y7OYaCNdsuHZ9ESBAgACBMwhsLkCGF+LPnz+fwd4YDyQQrtlw7foiQIAAAQJnENhcgAwrj74I7FHAtbvHWdNnAgQIELhFQIC8RU0dAgkBATKBYhcBAgQIHFJAgDzktBrUGgIC5BrqzkmAAAECawgIkGuoO+chBQTIQ06rQREgQIBAQkCATKDYReAWAQHyFjV1CBAgQGCPAgLkHmdNnzcpIEBuclp0igABAgQWEBAgF0DV5DkFBMhzzrtREyBA4IwCAuQZZ92YFxEQIBdh1SgBAgQIbFBAgNzgpOjSPgUEyH3Om14TIECAwHwBAXK+mRoEkgICZJLFTgIECBA4oMC5A+Snt9mryyV7eH/Amb3rkJ6yt99eslfvnu7a6uzG3j90+vD4pm/+Qp8fssfZJ7m9ggB5u52aBAgQILAvgXMHyCzLQgC5XKYEjSJEXS6h/MzHt2+zlaPX867K9w/Z5fIqe/vpec0UtR+zhxtD+1MIkO26ed+681fMa1+4vMc4um0IkF0TewgQIEDgmAKHD5AxSMwOffWQ+Ob+61hP7141Q1m5Glr1sxuK8kuwXW6sbyFg9ZRp2vQFxFuDc1//n7LH9thn/Nsq3Jpt5+OojzEVeEu3JVdRBcgZE6koAQIECOxa4PABcpOzk4eZWmBrP89iaGsGpawMQdUt92I1bzQg1sNVDlK2X18ZTYWuLMvywFYvVwMdOlYrltxMBcFkwc7Oou+VQZYVLpVVCJSN47GNjnM8cJ/vAuR9HLVCgAABAtsXOFWAbK64jdyG7glN95jSzorZp8fssX17uBMWy9vt7TCYCH5FOKuNL1mnClxxTN1+hfeI1oJuLFh+f06AzMqQPG1FsAzK9VXhWdvVWDtjbI3pOU8FyOfoqUuAAAECexI4X4Bsh6nEbD0vGCUabOya+h7AolwVsPrqtcs1g2YqMOX7UgE5D6MxbHXbbQxjZHWyXbb7PK6y9gfUqk7f2KsSvVuNMWVZ1n7eW3H+AQFyvpkaBAgQILBPgfMFyKkrV6mAdY85nhxgWgEur5cKW2UQ6wnG8wNkeY5wvtwgBr3aiuYUwzG/coU1f89nT98r7jsGyOwZbVUdSm4JkEkWOwkQIEDggAKnCpBbmL98dXM0MMWVslpgHAieqZAYx5o6VtzijiuNsWT5fsfOLesiQFYroa3yY0GxKt7YuvZh7vsSc4cpYbY7vqID/eNpdPCGJwLkDWiqECBAgMAuBU4RIPMQNWXVLFWmEZCK1avqN6XnB5lUoOtcOeXqXCO0jQXIRj+rFtPnK8dRrxPO+e2rxHse+wPX7bf6y1XNPEjXt6t+37ZVzU/DrtVY2qRV6IanAuQNaKoQIECAwC4FzhMgp6z6tabw9oDUaqj2NISXoXBTrMxduh+9MxYge8bXH5aqsJUH4hAmk6uBCwTIfCzt1dXa85rX1M2rWz0U91TOy/Z49VSZtFuAnMSkEAECBAgcQOCEAbJc8UqtNub7qlufLx0g87DX/qDseJG1Q1fcHz/ypycQ9QfIawPVRjKk3jtAplYcU/uqbo1u9dqkawqQaRd7CRAgQIDAVIHTBsjkKmArQC0VILuf2xhD7cAqXHlbu/v5hsVKYnI88S/t9ITL9kVSD5sxzM67Xd+6pZ9YDcxNO++zjJ/lmB5/UafVdu8PAOlydZ/6ONsGz3luBfI5euoSIECAwJ4EBMj6bL1AgEyufk1aQetZpRupOzks9QbUOlBze3bALs9RD3P1Fme3Fyu35i3u7vseTPr60Fdnyn4BcoqSMgQIECBwBIHTBsj+lbVlb2GnPodwcsjLg1L9r6wMrz6GCzTd9mP20FiVLN8P2dg3fnnPC3xTztETkse6MitAFv3oruSOnWT8uAA5bqQEAQIECBxD4LQBcsoKVDp8PXfiuwEmP0/vLdkq0OZnLkNkDMBj40iPoQxztXPeEqimB8jyfIlb2l3NouzYuOr18n5cWk71AvXtWWGzXnF8W4AcN1KCAAECBI4hcMIAOTRx7WAV35PX3p9+n10MdenvVcBJh7qhfm3z2KQAWd62Lj6UfOI4Yp3eFdH4ntFqHqYGziXtBciJ86sYAQIECOxe4BQBcnOzlAekGE4317vJHRoPkPNXE6uTl6F90qplVWtwa2F3AXJQ30ECBAgQOJCAALnSZBa3XfcfIlfim3/aclVz6krl/BNkmQB5i5o6BAgQILBHAQFyj7Omz5sUECA3OS06RYAAAQILCAiQC6Bq8pwCAuQ5592oCRAgcEYBAfKMs27MiwgIkIuwapQAAQIENiggQG5wUnRpnwIC5D7nTa8JECBAYL6AADnfTA0CSQEBMsliJwECBAgcUECAPOCkGtI6AgLkOu7OSoAAAQIvLyBAvry5Mx5UQIA86MQaFgECBAh0BATIDokdBG4TECBvc1OLAAECBPYnsLkA+eHDh+zz58/7k9TjUwuEazZcu74IECBAgMAZBDYXIH/66af8hTis5ngw2Ms1EMJjuHZ9ESBAgACBMwhsLkD+/PPPmQeDvV4DZ/hPwxgJECBAgMDmAuTXr18FSCF6l9dAuHZ9ESBAgACBMwhsLkAG9F9++SULL8YeDPZyDYRr1hcBAgQIEDiLwCYD5FnwjZMAAQIECBAgsEcBAXKPs6bPBAgQIECAAIEVBQTIFfGdmgABAgQIECCwRwEBco+zps8ECBAgQIAAgRUFBMgV8Z2aAAECBAgQILBHAQFyj7OmzwQIECBAgACBFQUEyBXxnZoAAQIECBAgsEcBAXKPs6bPBAgQIECAAIEVBQTIFfGdmgABAgQIECCwRwEBco+zps8ECBAgQIAAgRUFBMgV8Z2aAAECBAgQILBHAQFyj7OmzwQIECBAgACBFQUEyBXxnZoAAQIECBAgsEcBAXKPs6bPBAgQIECAAIEVBQTIFfGdmgABAgQIECCwRwEBco+zps8ECBAgQIAAgRUFBMgV8Z2aAAECBAgQILBHAQFyj7OmzwQIECBAgACBFQUEyBXxnZoAAQIECBAgsEcBAXKPs6bPBAgQIECAAIEVBQTIFfGdmgABAgQIECCwRwEBco+zps8ECBAgQIAAgRUFrgHyhx9+yMLj+++/z7777rsVu+TUBAgQIECAAAECWxa4BsjXr19n4RF3bLnT+kaAAAECBAgQILCeQMyL3wiQ602CMxMgQIAAAQIE9iQgQO5ptvSVAAECBAgQILABAQFyA5OgCwQIECBAgACBPQkIkHuaLX0lQIAAAQIECGxAQIDcwCToAgECBAgQIEBgTwLXAPnrX//ab2Hvaeb0lQABAgQIECCwkoAAuRK80xIgQIAAAQIE9iogQO515vSbAAECBAgQILCSgAC5ErzTEiBAgAABAgT2KiBA7nXm9JsAAQIECBAgsJJAJ0D+6le/yv+c4Ur9cVoCBAgQIECAAIGNC4QAGTLjN/G3sAXIjc+Y7hEgQIAAAQIEVhZoBMgQIgXIlWfE6QkQIECAAAECGxcQIDc+QbpHgAABAgQIENiagAC5tRnRHwIECBAgQIDAxgUEyI1PkO4RIECAAAECBLYmcA2Qv/nNb7L6L9JsraP6Q4AAAQIECBAgsA2B8Dszr1+/zr6JATL+Is02uqcXBAgQIECAAAECWxMIATJkxk6A/PDhw9b6qj8ECBAgQIAAAQIrC4SM2AiQ9VXI3/72t5kQufIMOT0BAgQIECBAYEMCIRuGjBhWH8Pj/wGg+hpY+x6gwAAAAABJRU5ErkJggg==;" vertex="1" parent="1">
          <mxGeometry x="10" y="190" width="656" height="358" as="geometry" />
        </mxCell>
        <mxCell id="ntTl1n4FJI3rc7qS_6Iw-17" value="点击任意年级&lt;br&gt;" style="text;html=1;align=center;verticalAlign=middle;resizable=0;points=[];autosize=1;strokeColor=none;fillColor=none;" vertex="1" parent="1">
          <mxGeometry x="80" y="585" width="90" height="20" as="geometry" />
        </mxCell>
        <mxCell id="ntTl1n4FJI3rc7qS_6Iw-19" style="edgeStyle=orthogonalEdgeStyle;rounded=0;orthogonalLoop=1;jettySize=auto;html=1;" edge="1" parent="1" source="ntTl1n4FJI3rc7qS_6Iw-18">
          <mxGeometry relative="1" as="geometry">
            <mxPoint x="160" y="670" as="targetPoint" />
          </mxGeometry>
        </mxCell>
        <mxCell id="ntTl1n4FJI3rc7qS_6Iw-22" style="edgeStyle=orthogonalEdgeStyle;rounded=0;orthogonalLoop=1;jettySize=auto;html=1;" edge="1" parent="1" source="ntTl1n4FJI3rc7qS_6Iw-18">
          <mxGeometry relative="1" as="geometry">
            <mxPoint x="60" y="860" as="targetPoint" />
          </mxGeometry>
        </mxCell>
        <mxCell id="ntTl1n4FJI3rc7qS_6Iw-18" value="调用接口" style="rhombus;whiteSpace=wrap;html=1;" vertex="1" parent="1">
          <mxGeometry x="20" y="630" width="80" height="80" as="geometry" />
        </mxCell>
        <mxCell id="ntTl1n4FJI3rc7qS_6Iw-20" value="成功" style="text;html=1;align=center;verticalAlign=middle;resizable=0;points=[];autosize=1;strokeColor=none;fillColor=none;" vertex="1" parent="1">
          <mxGeometry x="100" y="640" width="40" height="20" as="geometry" />
        </mxCell>
        <mxCell id="ntTl1n4FJI3rc7qS_6Iw-21" value="" style="shape=image;verticalLabelPosition=bottom;labelBackgroundColor=#ffffff;verticalAlign=top;aspect=fixed;imageAspect=0;image=data:image/png,iVBORw0KGgoAAAANSUhEUgAAAf8AAADMCAYAAAB9aKoJAAAgAElEQVR4Ae2dy3HkRtN2X59o13AvOdFBH2QAxwRZoODiX3077SZibBD+qHtW1hVNoBtAH0UoGpdCVubJrHwAsMn538J/EIAABCAAAQi8FIH/vVS0BAsBCEAAAhCAwIL4UwQQgAAEIACBFyOA+L9YwgkXAhCAAAQg0BX/P/74Y+F/GFAD1AA1QA1QA+eogdnbmqH4zxpiHAQgAAEIQAACzyNgbtBm/0P8Z0kxDgIQgAAEIHBgAoj/gZODaxCAAAQgAIE9CCD+e1DFJgQgAAEIQODABBD/AycH1yAAAQhAAAJ7EED896CKTQhAAAIQgMCBCSD+B04OrkEAAhCAAAT2IID470EVmxCAAAQgAIEDE0D8D5wcXIMABCAAAQjsQQDx34MqNiEAAQhAAAIHJoD4Hzg5uAYBCEAAAhDYgwDivwdVbEIAAhCAAAQOTADxP3BycA0CEIAABCCwBwHEfw+q2IQABCAAAQgcmADif+Dk4BoEIAABCEBgDwKI/x5UsQkBCEAAAhA4MAHE/8DJwTUIQAACEIDAHgQQ/z2oYhMCEIAABCBwYAKI/4GTg2sQgAAEIACBPQgg/ntQxSYEIAABCEDgwAQQ/wMnB9cgAAEIQAACexBA/Pegik0IQAACEIDAgQkg/gdODq5BAAIQgAAE9iCA+O9BFZsQgAAEIACBAxNA/A+cHFyDAAQgAAEI7EEA8d+DKjYhAAEIQAACByaA+B84ObgGAQhAAAIQ2IMA4r8HVWxCAAIQgAAEDkwA8T9wcnANAhCAAAQgsAcBxH8PqtiEAAQgAAEIHJgA4n/g5OAaBCAAAQhAYA8CiP8eVLEJAQhAAAIQODABxP/AycE1CEAAAhCAwB4EEP89qGITAhCAAAQgcGACiH+RnK/l9va2vP/8XZzhAAQgAIEjE/j98315+/G5nKN7mV77vnz+qhP9+ng7USz1GI589LTibwrj9s8OaP+5LW+dguzP6G4c5vz6Wm5qkbZjKsf2/PhOA7h/wZnYb8tXy7Ffn8t777zhLnno/Zbd0XGbz2fezP1ePn/k89v8fDRIGX8r58w19RvSAfcRn4eeL1nMTe+uq6+re23OzTwcZeurLWDD61cNGPeB76z9liumJ9RrL7+iW9f5ULtne02rJ9h+Mdvj2zcRdo7Keqq483KHzin+tjDel9s/5v7WLf63t7el/b8TJVucnXHvP79so85ESJaEL8hinlhcXvx/GqGr+CPF7dfv5VMvqqpAhvhaDaZsfnc3AC+U9SYrQVS2fTx1dj6Gj8/ld+MufzFzSz56X03ZbRxhrM/X+4/3iRu6wLmSt1ou/bGCla/N9DTjakI2z9+/fJ291ZpbYKVuDnws+XxhbIdrYLHy0/FdxyKsCxlrNm3BJjvb3ule5xjU52zl9LZ8mifkTl7tubiu267Zur37YaFjt3bqlxH/t3hzOOpneXy35cvXUH68kmMVt6mFOl/tpO9/Mw9lvtdUffnxuXx18qN9sbX6w8Sn/VkWe07Fk4+q1IjsQ/ngxp6Lu4yl1bMbZh58+ITiXzbTe5kVheELUhdXab/VcHTxu3F5wxbWKk1N++QWeOeJ2vqcn79L/GcbQ1WwQkx+EajF5hbn4FWkFnu9v6gFNlqgPp6QyyHHEML0Zz23RayVHIcp2nlq1HjGxDctxTrY3vXTs23WtZnc1mVFWEaCG87LuLK4dWSttZiPs6yFTc1en9frMLcm9mycD2zyqq6FJ3ZTx6XP5/u6X+Vnw55hEdZRONb8tDzyflSM9THYN1y19SGO6bxoW/l682si1FDrU/SOMs/BxiCGzJHGes3GHG/nZOK/bcPLE6/EpVY4sWh0wzHXmgagF5Mb12uSprjzhWVshMIz1/cay4TPRRwVe4OG4sq2xf4eH0J8YkHoBm+biBSP0u88f8pW5SbFNpLNntIqufUcs3zPNEPhetz859O92fI2y6cKycZt53UULW2/UYtzNMs913ibNs/NOnZ5GMWuRcTux/W8LPp8Xlu+9gsfyhzoPGW1MGI0ed746uKdX3tVPnrN+fkti2qs5RpcbF7z4zk7HVQlX9ZG6gm1XJQcfU5EDvVMZr/vy7L8/lX5doSv1Sqz2iRrx9dsPOHYqcQ/S6QBPkj8iKe0Z7dNwWubNrF5cYcfNcTiiGPcYkyF6go07TuP2otr3EzinJ3CtvZ1HC0YonC/PnSc4aLeQtMx+2sik2DDfyoxjNyzZnNbvhqNKVmrNJH4IyAfh/FBc7DzN55kWj6nScVWJbfethaAuf0WezFl2ByyCQN3+vQ1o+u6N5vNs86Ff5vTt2M4KzZZnkIdfBbfoZH+aEGZWoPxTUGYoyIUNufKPztxpT6kQzttr1n7Jieyn7Rc6o7LcuEt2GNJzLvX60ktz3StPh33szXQZm3rLuYxXj3YcD1tho01dMd6GDjwkNPnEX+T7JjEzmIcYJPFILeXX7+X36poralqMar54wLQQlgvSt2IBi7H03IRueZVXyTTDcAXrSvy34sR/7f41iFM62JK7MPx8Klj9scjkzDOf1Z5+tfEUhxa44I573sQDscj/TzUDgvfQyhicnkpvtjZ8jnMmX3Wc5sN8eI23UTyi9t7ho1k1R757TPZGgnWFPtwuPlpc1kTyEbtSEN2LlXnWW2EXPob5wYXveb0GtHn87jdHNU8NmObqQ8Z6GDbM3c3koqHuFTHJU5Nfj+qzJPsO8Fe5DNcM7W+onKW3fj3H4CaOWjkPfoZHJ/59Kyrc9WutzVQ+/5ObfBxjp1H/AWzVOArisgXhywGuy0Kz3yB0HwzOwiKmTLNZfa8EIprzGJ8/7j5b7LrZlbaizbjjYwIbLBp/LUFOVhwuc8to9pX61n+hUdf1P1FUGfSf9qtNC8zV7aAJ3JrGfpx2bV5zJFbfnhxryzF00/WYPtNKMQna0WbX/9lMMmybMLB/lx+w+jvfcr1Ei15Tt3Y42Cfn2q912owXmg3bKzqRzV5/M5+Whcmb2V92WuED7mNudf+1XXwKPEPWCx7E5+sldla1axcjcUch77yj/nCcqq/cv2IvIVrKl+2Cy6Hvlnllwa5LcuzzJ8elvaTLzYO1ZvDOtWfPV+cnRR/mqux5ftkNkenHzWsPPzw+cS/udgku3bDiYXeeG2eNwmxWKR5/3o5FlC2IE3RNBamaD7OXGOcLuCVhaQbW+b6aMfGEprJzCJMiy8z3WoKrcVtjq+MM5tvi52Wz1XbrjZ6AjjXjCpNRvhhc6nrobk/k69qMM2Dcr3EQVmNhFrxnyqHzv9KjNZYo3biROb8bbmFm15/PPdJr1G/9r0f1RwMvk0em3hcr3qO6KD/YmMtvnF9CCvzm5b9vXkWcYgaizzjMTHO98nY64yncZza7kTh6mDC71Z/aNh2+Z2w27heHw71ksWrB432LR+zHrbzazTlPefPJf4Ram2xyfBd8dZeVcdCb4i/K2yfNFnk0rwW/1Cwxfh7G4D33zR51UwzN+y8qvk2hcGPiw0ts+R3ws3IiK+8ttHACxb+msBKmjDbMhbjY8x1O758gQbf2+NjU7eMKjG2fNa+zux7/28f8sdV+YXNhjjyw7Dq1UU+zbf25HqJhkJso1/pijn1rOP+IEc+Nsvn40t9GU+vKbef10J5LNgKMdh9wVCfz+Mu7QU77bc72s94xfc2LHshKjNMY5wiDlFjMdbasYr4Z+zENd3A7DjzVnXtOq3Uiu9h1g+7lgWPlhN2/t444VfRIx23vH/0bIWbIvFWseXXE4+fR/x98bz//Oz+VSjH0ierSGL+7c9Y9FkC0gKx5+PCkYPSGHk0uyO2J9y43tNhdr3Z8Yt51TXKSLY41bly17Ma3TSI87lvYtGIMflC0Qs4LRzLOFwnWQ8Wq7kub/hlZNUjvo5qN4Zl/qoWpg6m2jF8Kzcave8DWB9r17ipA7O74p/yPg2yc+l15BnmdZCusVt+TH+9utpp2TFz23PWlq8ZuW0naqxF5Y4Wd3Va3WAUZ92Pw0KdrvhsxaZnmN7X8Zt+IdeNMpT3AsHK2nE1FnMsjrk+5Jib86nWfL8INSGvUXPrXTtPx1c93uw382b75Pvy+dP8UTbnpx07m5vgv5lE3EBtly/FqRbck4+dRvxNYl0BmobRboyOZxt8LPTWk78xYAvaCVa9GMQikgm0RZSELfxWQGZD2O4LpBbMsD+KXX9PQTootmPBG3szTM21tWZdOxYYVnwtGHmfzHHZGCwnyVL4Xnkayc+29pyv2Txy6IpGli5zNlNzDLGL747o2ELttV4L9vyw/ELOBm+GkpN3b8n1Eo34Gs7qOp50G0kwDJ9KHdhhjdpRtsxusFf601iLykZTRPy4/vnOHDEfakL/drDHSF8xta/XhZ0/9IbGZ1xXIg5RY5GpOCZvhAN755/KmbymGoAYb31tr+na5a28GJ8s21mbmluYLPJb51e4vP3pWFcfMtoXPfTMacQ/Uek1kzCqDT4WemjAP97jX+MLDdwWnL2DbBWEWERhymBP3lHe0wBmi1nMqzet/3HB67O1/Rmm5jqxkGtm5LFhU5CDK9/2t9c3mpm/uw/5UpYau74mWoJrrlrrc7xGCL3PuV70WRPzDacpDC0//HUp7omYGjRmD8v1Eq/xuWn6HweajV5tra0nUw/6RqK+FjMXKk+QNq7hU2Jr/QvrNifaJ3F+603LXvhl5u+s9bwXCFaixmKOxTHptjkfa87GK+ZvXBOvt+fl+siftNc/ACnWNX9qPKwfwm/r4I7rx8cduUUgx9l4TfGXi14VSmgKprG5mwBVbFnROHFyCa41Mldcc03SF4Uu5jtqJV/wMwZ6DVpen8cYWK1fwF7U5Y2SbmLVxZp8yRpSOhxvUKxPwr7ztZZLcbGdczBGDLebNl/pGlczusm4i9w5F3u3Jgo/QpNSTdT70ozNN6DuXDoetW9tC4729Cq7vdrK60lNne9azupXOe0IIWj5FdmeZB9eE8sB9ryOUw5obav8t4al4y7mu0XBsnf19fXh/x6G7Ge17djjBCtRYzHH4ljyN711kcfiduOaeH7Ix/CorxdjY5gXaz+/3q2H/Ji7sa8dEzc20el1G8bHbI1ZJvu/lVvnZTn6hcQ/NFBVAJGJW5RFY/BNxy7WkNTi6aP1qt3NmRVGnK+xUSnmxsjmYbtg4oJvDhMnTOxJwMQJtekYTcUzagrKsv25m/TZXt/K1aAhGdsxV/5GYyY+f82axmwbjffbcq/OE2rPNAT3pqk7h2QX4hgIUy3nzp82Q52C2n4UBnnS+zRVB5s8+ae6szFlLISgSR/ttuBezUu6oLSbznW3huKmrl47Xl0u69rWkLEn140an9eFYCVqLOZYHJNmzPl2vabcyGvCtlwf4Vj2+et3/Dv+tXoa5qXRLwufbWxqLfg6bj+8qPGZ42nH+qhuutq80nXP3rqo+LuCnE6AL4L2eN9EWovMXx+K1xa8KoZQYGGMTLwe3/bDXzUs2iB4rU9d1I5X8HH0WYtBxmO3rY8zNxT+St3EJmIccjKmbXMwHHTMhcf2QG0h93l4u7V4ZQyZYIW3SpUn2eiv8XkFv0o4RQOsjKkdWs9A15n029RW+GKWHtfZj7x8bcb9lNOp/FcC1Outm185b8WWqy8Zb21QOjYUszS0vuXrI8au1426ys4X+9Y94i+uUbbjblazOqeTbMxaiX5Gy8M/z+v4T6xt6+PEuDT15bcuI/5lw3pcou9tssepLt+gu3+ow3jrGvGW4i/zFhuamcoKZzuHa5m7ht+2t2kuYjOcaHxy7P/L/7hKunHRDbW1L+ebzemmkVeMfccPV2/6+xNhElk7VQEfCXcw9J1Pmz/JvWfMCenU+mmYKerezK9E09V6qpE0X0PI5U2qt5WzfdC6MTHH9RD8H7C14+v+aQ5Zf2nwfaXDJxT/V0oPsULgdQlYAXqEgL8uYiJ/YQKI/wsnn9AhAAEIQOA1CSD+r5l3ooYABCAAgRcmgPi/cPIJHQIQgAAEXpMA4v+aeSdqCEAAAhB4YQIvKf7um6z1b4jaWhh80/yF62U+9M63cOeNXGfk6355zX1jv/lN68q31a+TdSKBwHEJvKD4N37dReboaeI/4Zv0s7rd//Wo6iW7HFznhxVH9StL0a3JfHRtRGPP2dhW/F2d5L/eVt7M9uZ8FCs7T+9vLCD+zylIZn15AucWf9U47O91tgQkpNoKyeB3RyfFJpjc7vOB4m9jDL9Le8fniLOBsuLpvy9GXuy6v/blxqTfaRZ/SKfxB5eMeLon0pqYrmTy8eX+IElnrlyslf3I0980de0M6tcWZL+Wurxt3pR/lpX5FzXL43lc0rfBU3+okRh7bSXdkZuuvdocHIPA6xE4r/h78Xo3/953zNu42bgnkbyBScGwpp4s/nkzzX0d/6W6dU/cEZ3YmLqJCn93eygG2v+0L18Fd8UozlU+3Ua3C8ESImTzKfbtRX1xjHYbG7OMwj9sc/t493/atxNDYy57uBpD7wJTBzrmNH7E243UNlxtpfWizisf3VqT8brr+/Xt6yPe6DXypOYKkc3FFUbzCYHXJXBS8XdNRIpHTKFtCuGJLh71G6pZxdMTTekhTxONRhf9FBs+zqlGKgV6Io55YRP+2M1OXvRQtZ837dmnvSBuZnzYVobNblUo3BxJyCrXdQ5NMRLz2visoLVqMEw2G3u6iXI1IEU2vHXRY9K6yHmHufWn9tXlNzFT50W8xV+DVG/p4kyt43GA41Gs9WyuONj9QzATNZ6uYAsCr0ngfOJvF31qYtW0+TH6z4Kahlc0EWug1sRSM51rlFVPVh5sNLpVVlyD1rGvMTElbFWDbu464+oF/l9OVCL18bl8/qj/C3bJisiZEZD4pJhGxC1bDymf7vi+4q8ZJvE3s6/Ms32r0bm5iYGmjbLW8zlDTX9+9OwKxta0ry15M1lsO3t5/O66dNOQ/LQ/GuqKtfN71U1u156Ym00IvDCBU4m/bShvI1EI2UxNwzUds39bbh9KaGyjUE1OiUVolOnHC2GO73zONNLc1zlR9XZ7YjhwO2/cg8HZ6U6Tz8aVOzljl7sgFvm5cG3IWS+vfqzKpzta89WzKwTN5SH4Y65vMbK+VmrUHlc5aY0NEYbP1lzhfPmZ83Pn83jD3E5UWzcAgXGYIbcRfqTxGf5NCMvZ2HLzZ4KtYg8WZ8W/qP04V7RkN2xciH8OhT0IVAicRvyd8Ount0pE+pBtEvm/rVw2CNXklFiU4/Uk9+yrObsmXDMtGmD1Gtegu0/C1evSQSc27p+eXWUnsG6IZxADKaJh1jZjLTjhivLT2qiJjH1y1rVTs1s7ZuYpjxeC7GM3OXK1mt+4hdjbn0Y03TztMWOblq3wJVKyx5LIJ95JqMu8GH/SNSUHdV7NYedW7O28g/rIv9fSqP3aXOG7IYh/TDsbEGgROI34hwDmmodrki2xTI0vWK01sSQW5fhw3Xc+1ZxdU6oB2oY6FoK2iKTYatOmGy3jo5lHCkDtCn+s0ZDjFfZ8/c1Nk7GJdbKZWxtC/O3+QGhywXPx5seM9+XxQvxjkO6tQKv2xLCJn0+7eWdsSbvGt9uH4lYTYcHVsfJ59nnS9XP7J9RDr/ZkrZjxcl96Obudbk60P819EdfsLIyDwKsROJ34ZwlqCkO/aZZCo5qUbX5JIMvxmRd37qg5u1aU+HfHuthXPbEre1rYoogKYVWX2F03LnErxnRuDuIc5pX5T/NP2/YEJp17//l/9vsBNSGIIl6tkxp/xy5eFwMoj2tGcWj4kcCk/+0bmzWiJwQ21G749I5ZviJ/dl+JZHlMM9Ic1Pksv6Jm7fH87Zvk1d8WduTAbK50oowhnWMLAhBIBE4t/rqhpbBck9JPTLZhF03ZNE43viYg8ZhqlGmue7cm5lS+VuMRDd154u02jmsbNe/rwhb8bYm7F6seJ/v0KYRKC6W6ttXIjX+1OFr1ULVTFQ8X4xbiX/NPs676ZQcF1m/9LzLGsYKpYWxz7/LhYpHbzov23NJL44ewLU/V5hbns7Um8xpuBFRtx3Vmjhe1KwyHzWr+wkk+IQCBEYETi3/jicBG7JpnqwGXjU81OdtYksiV40dYZ86rObuX1GO1DbZolC72soH2mcjp6+LvRjTPWWGvv9KPtu2YxDUer/2sttXcW8eDjYKH/2M/UoDMxFU7nl1DmORNQZODv6Fp1V435uiXu7mxddfwJRPLlkAb3ibuCve5mh7V6Oi8jNZvq7WlR1i/fA7n409vgiSXmRzo+dmHwKsQOK/4V5u3T5s91xaiYeMbNKijFMczxL8eu7s5ab/C9ldVRCjY0zmxsVnhk0+efp6KwBs7UjiC3Xh8hfhLkZd25PZI/KUIdbelX6qmW/FIP4pv3GcnPa/4lwzTSc07nZFbStz9uurGU5kr/Gqj/SLfYG2NY/Y3wh+35f3tfTF/PAmRlzljGwJzBE4r/nXh80H7JtVq4sPGN2hQdWGaAx5HGSEMIqb91fv+98J1PHUG/uk12I4TuuMzjbInbNGc2HA8pEiLk2Kzx719LgmYE536mwMzTRIOc03yJx0XzgxyLEZWN3uMzLkZzu2Y3ZT2/Hee/P0XFfNvzwvb8sajHmX253zLmNTNgbKR/E+5cG9cZnKojIX8hrccNn/OrpunbdP9mWn3dqCMoZyHIxB4BQKnFP/RYndi1G4G9nrT+FoC0DpuKkI8vUY7qyvFC3H808Re4KJg6/3wd+rzmGyc8ZrgxCPFPwizaO7BjeKz5Zcb2GVpmadXu60G7vLuxskbpSqnXo4L38sD1uZQPMvr1hyxTIr8agttAY5xV2Kd5t2dvzW3q4tqnqwvKZfVtwhqzpDXzJ61I+vO11e4OYiY3HFbD8U1cRAbEHg5AicT/7rYhOYgG4ls/jqrtvEVr5TFqEqzjGc3EP+qcAi7Zi7noxT78oagFrdkUNvOGmgMKt+o+pcPsXtufuljGpQYi0bfEUs7vtH08yfXeg2EV8sxvhmR8U/VvVpJEcmtMhfh1wFrzOeOlRyrDKtvAqQIOj/L3Hhx7ORARlhsr+DZ/dXQ3toKde/rINR3zKl0ytop4w51YJlbO4i/xMY2BAKB84h/aD5KIEIg85+ucVcbSjAyaFChKXWbXLClP5tNSzQpc42PNxMmc+ze5u1fAXfj9r7a+O6eRwfc35cCl57Oyqf3wkqNTzFouwPSTyfmNeHZbj5jqXZDVM5g6ib3pRR+cZXn1r4hKW9CxNXH2bRx5HE3nRNvjmbqv2mHExC4EIHziP+FoBMKBHYjYEXxJAK+GwQMQwACIwKI/4gQ5yEAAQhAAAIXI4D4XyyhhAMBCEAAAhAYEUD8R4Q4DwEIQAACELgYAcT/YgklHAhAAAIQgMCIAOI/IsR5CEAAAhCAwMUIIP4XSyjhQAACEIAABEYEEP8RIc5DAAIQgAAELkYA8b9YQgkHAhCAAAQgMCKA+I8IcR4CEIAABCBwMQKI/8USSjgQgAAEIACBEQHEf0SI8xCAAAQgAIGLEUD8L5ZQwoEABCAAAQiMCCD+I0KchwAEIAABCFyMAOJ/sYQSDgQgAAEIQGBEAPEfEeI8BCAAAQhA4GIEEP+LJZRwIAABCEAAAiMCiP+IEOchAAEIQAACFyOA+F8soYQDAQhAAAIQGBFA/EeEOA8BCEAAAhC4GAHE/2IJJRwIQAACEIDAiADiPyLEeQhAAAIQgMDFCCD+F0so4UAAAhCAAARGBBD/ESHOQwACEIAABC5GAPG/WEIJBwIQgAAEIDAigPiPCHEeAhCAAAQgcDECiP/FEko4EIAABCAAgREBxH9EiPMQgAAEIACBixFA/C+WUMKBAAQgAAEIjAgg/iNCnIcABCAAAQhcjADif7GEEg4EIAABCEBgRADxHxHiPAQgAAEIQOBiBBD/iyWUcCAAAQhAAAIjAoj/iBDnIQABCEAAAhcjgPhfLKGEAwEIQAACEBgRQPxHhDgPAQhAAAIQuBgBxP9iCSUcCEAAAhCAwIgA4j8ixHkIQAACEIDAxQgg/hdLKOFAAAIQgAAERgQQ/xEhzkMAAhCAAAQuRgDxv1hCCQcCEIAABCAwIoD4jwhxHgIQgAAEIHAxAoj/xRJKOBCAAAQgAIERAcR/RIjzEIAABCAAgYsRQPwvllDCgQAEIAABCIwIIP4jQpyHAAQgAAEIXIwA4n+xhBIOBCAAAQhAYEQA8R8R4jwEIAABCEDgYgQQ/4sllHAgAAEIQAACIwKI/4jQyc///fffy+12W/7888/FJJv/r83A5Nnk2+R97/+orWvXku4Vj6ytvWsX+4vVglkO/+sNXHMX0bPDue0I/PXXX4v5/99//13++++/7Qxj6bAETJ5NvkPu93I02Ke29iJ8PLuPqq3jRX5Nj9ZoNuJ/ohowT2WmQfPf6xIw+d/jDQC19bo1FSLfq7aCfT73J4D478/4KTOYV7/mqYz/XpeAyb+pg63/o7a2Jno+e3vV1vlInNdjxP+8uet6bn4+x6v+LqLLnzT5N3Ww9X/U1tZEz2dvr9o6H4nzeoz4nzd3Xc/XJLZriJOnJrBHHexh89SQX9R56uDciV+TP37mf6Jcr0nsicLC1ZUE9qiDPWyuDIvhByBAHRwgCd9wYU3+EP9vgH70pWsS+2jfmO9xBPaogz1sPo4IM21FgDrYiuRz7KzJH+L/nBzdNeuaxN41ARedgsAedbCHzVPAxMmMAHWQ4Tjdzpr8If4nSu+axJ4oLFxdSWCPOtjD5sqwGH4AAtTBAZLwDRfW5A/x/wboR1+6JrGP9o35HkdgjzrYw+bjiDDTVgSog61IPsfOmvwh/s/J0V2zrknsqgl+fS7vb7fla9VF1xj89fG2vP34XH5Xw/labm/vy+ev6smnHdyjDvaw+TRATHw3AergbnSHuHBN/hD/Q6Rszok1iZ2z6EdtLP6/f74vb29v2f+3f5RH/9zaotIxEFUAAAqNSURBVGvOPeJmxMb9thS+RVcR/4jiVBsmb/2bWXPT9/6zfsu3mPr7eMVb4XV/G/5UJfEizq7RCMT/REWxJrFFWFZQc0HWAt3eT0+/9klZCbu+rtlUhVPWTqvB9sTfC7ae8+3jc/n8MY5PCn3/qd84Oxb/2o1O4VvGK7EUOFZtfqsOGjPtYbMx1f6Hf/1evvwNaK0WXc7el9s/dfH//evL15K/gZhcO7K29g9ynxkuVQf7IDq01TX5Q/wPncrcuTWJza9s79knoI/b8v72vrz/6D0Ft20sy2/bLGuNtn6VG99slj3xjwa1De2DPm+EXMRXeeqfubFxwp6eKq2QFD820L54p+2ciH9M4c4bQeSzH9vY2prLQfcGNfNd1VZ27lw7e/SYcxE4t7dr8of4nyjXaxI7DksIlBUlJ2j2ZqD1OnRZlvVPuu5pPBP65tO7f9X6APHPG3vrCb91PNFF/BOL52+5mu6/eam8HRI3bzafrTdSJsDqDRzi//zc44EhsEYjEP8T1cyaxHbD0k8/QvzNdXVBa1l0jW/+qX9Zaj9TzcTYi//nT/NqtjWvfrKfa/zWnoo/mzubblL8s9f6FXHJzs89dWZuqJ3N6kDY3cOmMP/0TZtjIfIthxD/P1poOH4CAmvWMeJ/goQGF9ckNlyTfYYnbv1ko8TfXtMamxn0Qr7yG/GmEec3C+IthLFvxTmJaP0GoC7+ya4+n57ObIPPBDm9xs/DmxT/QlRUPMGoZYr4BxyP/ET852h/u8fMTcOonQisyR/iv1MS9jC7JrH5/E6M7K+0KWGdfUVqRNU20Ew0k0BP2bE3HU6E829TJ2G2fvsnf/NDgDBnEvUQmRZ3Lbj6vJrDmlHHwg3PIEZ5M1J/S6J98T4j/iF5D/9cL/4uh+O6NjeOqo4eHt12E97fY7bzAUv3E1iTP8T/fs4Pv3JNYpvOGWEtnlQroyeEarahSutGLN/tFwzF07aeS4i/vdbfsDjRdY1WN+X3n+Eb2v0bEincxv/ypkJ6O94u3yL0539b+Zak5sEmdaAM72FTTfHU3dlatfnUb8ai56H29NsbxD8iYuOpBNasY8T/qalaN/maxDYteyHV4lnf100uWV0jeklgTZM0NsOnt6dvSLT4m2HFMf1kr5+29fm8QVv/7U1QeMJrx5qiLreSHXlO++LP6ZscecmK7U3qQM23h001xc67IY+jm6/GeX9D3BZ/n1P/mzHZbxDw5L9zbjE/S2DNOkb8Z6keYNyaxDbd1ULbGtgRKvsUZV+Ni6f3hp3s6drY9E1WHpfb1kwh9DXjrhnLJ/l8VOe8tR9EQIr+jICMY17/q4+556O9TepATbKHTTXF83ZtLff+kmNyrS7+7sbR/qiqui7yG8tk7Xxbl66D86Vjtcdr8of4r8b7vAvWJLbp5bfE34ujEfDQUAc/HzdvFNKTv/DKXn9bvmrNdG/xF27km50bBjMw+By3ww3EHZ/+Jiiff25vkzpQU+1hU03xtF17s/rxZb8/0r5ZdO4V4h/qPPwooFavPPk/LbdMnBNYs44R/5zdoffWJLYZSPbUOxKt8qk4CrkUwuZk7gt78Ro1zjZlc/MQGms4f5f4+6ez0c2Iniv8aqP9A0ArxD/4qj7djwFuy+3Hm/tuwzdEXpmOu5vUQbTmNvawqaZ4zq6tpVDHpkbCdt0dKf52W9+8Iv51cBw9BIE16xjxP0TK5pxYk9imRdMMZwSp2uSEVXt+dPPgztfFP7xirzTjFeIfv6tQiPqMkGv/Zq5pvPb3PFyszo7d9sdHT5yC7HBzkzpQs+xhU03x+F1bR+KvOhoPspuB0qUo/q1x1XXBa/+SJEeeQWDNOkb8n5GhO+dck9g7p5i/zDbBhhAKK8XP8/0594Rs/jW9ytNYT/y9mFrR797EtIU8zS0ctZvumnhDUX2LoGL2ApPfUAnx91OEtxz1GyHtR39/jzrYw2Y/in3PBt7Vm67ODVkU/5Z71dpE/Fu4OP5YAmvWMeL/2Nx8a7Y1idUThWbYF7b2k3zRRKUIV0Uy2dKCZxts9vo1iK4SVh1Ec98139nYilii3fYNgx0ib3iqoh8MleIfz8R/8fDeWNf9Cc8w7+jzO7U1sv3Q8928SE9CzeRvnqrir2tdv2Wy53M7cqYzbV+mDs4EfUNf1+QP8d8Q/N6m1iR2b1+yL791JtNP/qXwy4tDQ043Drmgn6XBtsVfRnvv9h51sIfNe+O777pQOytvqqKwu+uq4l9xqLiZ1jcElWvOcOj8dXAGyvv5uCZ/iP9+edjc8prEbj75JgZNgz6LgG8S8C5G9qiDPWzuEjxGdyVAHeyKd3fja/KH+O+eju0mWJPY7WbF0tEI7FEHe9g8Gjf8GROgDsaMjjxiTf4Q/yNnUvm2JrHqUnYvRGCPOtjD5oWQv0wo1MG5U70mf4j/iXK9JrEnCgtXVxLYow72sLkyLIYfgAB1cIAkfMOFNflD/L8B+tGXrknso31jvscR2KMO9rD5OCLMtBUB6mArks+xsyZ/iP9zcnTXrH/++efy33//3XUtF12DgMm/qYOt/6O2tiZ6Pnt71db5SJzXY8T/vLnren673ZZ///23O4aT1yZg8m/qYOv/qK2tiZ7P3l61dT4S5/UY8T9v7rqe//3338tff/3VHcPJaxMw+Td1sPV/1NbWRM9nb6/aOh+J83qM+J83d0PPzQI1/5u7dH4EMMR1iQEmzybfIfd7BRXsU1t7ET6e3UfV1vEiv6ZHiP818xqjMk9p5jWt+TmtSTb/X5uBybPJ9x5P/LGo/Aa1de1a0r3ikbWla4397Qkg/tszxSIEIAABCEDg0AQQ/0OnB+cgAAEIQAAC2xNA/LdnikUIQAACEIDAoQkg/odOD85BAAIQgAAEtieA+G/PFIsQgAAEIACBQxNA/A+dHpyDAAQgAAEIbE8A8d+eKRYhAAEIQAAChyaA+B86PTgHAQhAAAIQ2J4A4r89UyxCAAIQgAAEDk0A8T90enAOAhCAAAQgsD0BxH97pliEAAQgAAEIHJoA4n/o9OAcBCAAAQhAYHsCiP/2TLEIAQhAAAIQODQBxP/Q6cE5CEAAAhCAwPYEEP/tmWIRAhCAAAQgcGgCiP+h04NzEIAABCAAge0JIP7bM8UiBCAAAQhA4NAEEP9DpwfnIAABCEAAAtsTQPy3Z4pFCEAAAhCAwKEJIP6HTg/OQQACEIAABLYngPhvzxSLEIAABCAAgUMTQPwPnR6cgwAEIAABCGxPAPHfnikWIQABCEAAAocmgPgfOj04BwEIQAACENieAOK/PVMsQgACEIAABA5NAPE/dHpwDgIQgAAEILA9AcR/e6ZYhAAEIAABCByaAOJ/6PTgHAQgAAEIQGB7Aoj/9kyxCAEIQAACEDg0AcT/0OnBOQhAAAIQgMD2BBD/7ZliEQIQgAAEIHBoAoj/odODcxCAAAQgAIHtCWwq/sYY/8OAGqAGqAFqgBo4fg3M3lL8b3Yg4yAAAQhAAAIQuAYBxP8aeSQKCEAAAhCAwDQBxH8aFQMhAAEIQAAC1yCA+F8jj0QBAQhAAAIQmCaA+E+jYiAEIAABCEDgGgQQ/2vkkSggAAEIQAAC0wT+P6/kiJ6EQceJAAAAAElFTkSuQmCC;" vertex="1" parent="1">
          <mxGeometry x="158" y="610" width="511" height="204" as="geometry" />
        </mxCell>
        <mxCell id="ntTl1n4FJI3rc7qS_6Iw-23" value="失败&lt;br&gt;" style="text;html=1;align=center;verticalAlign=middle;resizable=0;points=[];autosize=1;strokeColor=none;fillColor=none;" vertex="1" parent="1">
          <mxGeometry x="60" y="794" width="40" height="20" as="geometry" />
        </mxCell>
        <mxCell id="ntTl1n4FJI3rc7qS_6Iw-24" value="" style="shape=image;verticalLabelPosition=bottom;labelBackgroundColor=#ffffff;verticalAlign=top;aspect=fixed;imageAspect=0;image=data:image/png,iVBORw0KGgoAAAANSUhEUgAAAusAAAFGCAYAAADTk9GQAAAgAElEQVR4Ae3d4a8tV3kfYP6YqP9CK9KUfOBLK6VI/VK1KSm4RlWDHdVBJWCMsQ2mStN+SIrbqi22sVqMS1W1JqRRIUlJDY5qnCgBEjsQg2MSDIbaCb7Gvrbvqt599Pqus+7Mnr3P2fesmT3Plo72npk1a6151mv0m2Gfc99UvAgQIECAAAECBAgQmJ3AM888U940u1mZEAECBAgQIECAAAECGwFhXSEQIECAAAECBAgQmKmAsD7ThTEtAgQIECBAgAABAsK6GiBAgAABAgQIECAwUwFhfaYLY1oECBAgQIAAAQIEhHU1QIAAAQIECBAgQGCmAsL6TBfGtAgQIECAAAECBAgI62qAAAECBAgQIECAwEwFhPWZLoxpESBAgAABAgQIEBDW1QABAgQIECBAgACBmQoI6zNdGNMiQIAAAQIECBAgIKyrAQIECBAgQIAAAQIzFRDWZ7owpkWAAAECBAgQIEBAWFcDBAgQIECAAAECBGYqIKzPdGFMiwABAgQIECBAgICwrgYIECBAgAABAgQIzFRAWJ/pwpgWAQIECBAgQIAAAWFdDRAgQIAAAQIECBCYqYCwPtOFMS0CBAgQIECAAAECwroaIECAAAECBAgQIDBTAWF9pgtjWgQIECBAgAABAgSEdTVAgAABAgQIECBAYKYCwvpMF8a0CBAgQIAAAQIECAjraoAAAQIECBAgQIDATAWE9ZkujGkRIECAAAECBAgQENbVAAECBAgQIECAAIGZCgjrM10Y0yJAgAABAgQIECAgrKsBAgQIECBAgAABAjMVENZnujCmRYAAAQIECBAgQEBYVwMECBAgQIAAAQIEZiogrM90YUyLAAECBAgQIECAgLCuBggQIECAAAECBAjMVEBYn+nCmBYBAgQIECBAgAABYV0NECBAgAABAgQIEJipgLA+04UxLQIECBAgQIAAAQLCeinld3/398sNN95Unn/hhU1FfPObT5d33nhTifd8tW1y/6HfYw4xl4c/8z/f6HpoPm8c3OND9Pmxf/Mf9jhDUwIECBAgQIAAgZ4CFx7Wf/Sjl8vtd3y0/NU3v/Wanwyo8R5tou3UK9oO9TW2byistkF8KBy3bYbmFW3Gxh3an9db9zU0Tjuf2H7b3/npa8aKc7e90mrIYNt5jhEgQIAAAQIECPQR6BbW66CaAT73xftQWI/9bdAcazvEGee250e7NiC34XiozVD/bT9DbWJfe73Zbmx/O592O8aN8B774/PQjcGu++J8LwIECBAgQIAAgXkILCKsZ4iNQBphMrbzNbewvmsojnYx9/oV11Z/HWcseD/0X/7bqa/p1DchbR91/9s+59dv4nwvAgQIECBAgACBeQh0DesZLL/z7Hc3T9IzvNYBPJ4WR0gfetIehHXbKdI61Oa5bbiOsBzzmvrOetww/OIv/fKZvteeNx95vTGX3BdjZ3DO/xegfZJeb9efo580ze/fT5nk8RwzzvciQIAAAQIECBCYh8Csw/of/tGTm6C+LUBG4G0D97btDMA1fxtw2wAcbes2Gaxvec+tJW408hVtto3dHqvDen3TEf3UNyftfOrt9gYk5+KdAAECBAgQIEBg+QKzDusRiqdedcidajsWbOsgHn1EGK5/gTM+x1dP8ql7bNdBe2rcXY5Hf3WYjzm184jjMfbnf+MLmyf/8V7PJW8i6n72/VzfJOwyb20IECBAgAABAgSun8CswnoE4giLUwHz0EF5KKwPfQ0mw3KE6Hzl10em5jx1POYQr3hvA3P9JD3a1NvRPvrexSTD/C5t8/q8EyBAgAABAgQI9BOYVVjPEBnvGViHnoYPPXGeCsNDx3O8DOsxZvzE12+Gwnr9y59DS1bPO4/XwTr3xfvQdUWYbr8HH23bPtrtGDeesMf+fOVNRF5j7BfWU8c7AQIECBAgQGAZArMP60MBuKXNsL3vL1VGP/lkOsJ8fI5XG4az3S5hfeimYGxfBPb6FePHvhg/wvfYfNr5DYXwto8YZ6hdPb7PBAgQIECAAAEC8xKYfVhvg2nLd54Amk+3IxTXQXxozLZNO4/YHrqxGOor2ubY2U8+CY9gn/+vQow5FPTj6Xv75D/6q5+ix7nt0/a0Guoz9kUfXgQIECBAgAABAvMR6BrWM9xGUI2AmmEz90e4zIA5FiTrkDsWQuv9dSjPZWiD+FDAbtvEuTGnDNaxHfOux5r6XF9TjBkhPK63fbXzabfTIP1ybu21pmXdrh3LNgECBAgQIECAwHwELjys15ceYTUCbR1a43gd1mN76Clx3c+un9t+87w2iLdh+L5PfPKNvwYTwThfMe927nks39u+cv8+7+28s88I93lDUN80ZHiPY3UwF9b3UdeWAAECBAgQINBfoFtYz8CZf36wDr1tOA2mOF4H0rPQjYXrsbCec4v5tG3q4BvXEl85yeC873v0Xb8ybMe42XfdJu3ifeiVc435x1zy3HrOQ+fZR4AAAQIECBAgMC+BLmE9Q2MG9AynuZ1hPfZHQI+wmeecNbAPhd5cigy3MV68sm39NZK2Tc45g3D21b5PBeu6ffQV4TrHzXmkS7bd1mc6hWG8ss9wS888lv15J0CAAAECBAgQmKdAl7Ae4bMN3RlA488mxrF8Ot0Gy6Fza9oMp3l+/d72lWE42tSBONrV29F/huC6v5jnE09+/VxP1bO/j91z7VdqYg7tnGMuaRXv7SvaZ9ivj0VfOda296Fz6358JkCAAAECBAgQuDiBCw/rESbboF5fbobioZBat/P5WoFtIf7a1vYQIECAAAECBAjMXeDCw/rcQcyPAAECBAgQIECAwFwEhPW5rIR5ECBAgAABAgQIEGgEhPUGxCYBAgQIECBAgACBuQgI63NZCfMgQIAAAQIECBAg0AgI6w2ITQIECBAgQIAAAQJzERDW57IS5kGAAAECBAgQIECgERDWGxCbBAgQIECAAAECBOYiIKzPZSXMgwABAgQIECBAgEAjIKw3IDYJECBAgAABAgQIzEVAWJ/LSpgHAQIECBAgQIAAgUZAWG9AbBIgQIAAAQIECBCYi4CwPpeVMA8CBAgQIECAAAECjYCw3oDYJECAAAECBAgQIDAXAWF9LithHgQIECBAgAABAgQaAWG9AbFJgAABAgQIECBAYC4CwvpcVsI8CBAgQIAAAQIECDQCwnoDYpMAAQIECBAgQIDAXASE9bmshHkQIECAAAECBAgQaASE9QbEJgECBAgQIECAAIG5CAjrc1kJ8yBAgAABAgQIECDQCAjrDYhNAgQIECBAgAABAnMRENbnshLmQYAAAQIECBAgQKARENYbEJsECBAgQIAAAQIE5iIgrM9lJcyDAAECBAgQIECAQCMgrDcgNgkQIECAAAECBAjMRUBYn8tKmAcBAgQIECBAgACBRkBYb0BsEiBAgAABAgQIEJiLgLA+l5UwDwIECBAgQIAAAQKNgLDegNgkQIAAAQIECBAgMBcBYX0uK2EeBAgQIECAAAECBBoBYb0BsUmAAAECBAgQIEBgLgLC+lxWwjwIECBAgAABAgQINALCegNikwABAgQIECBAgMBcBIT1uayEeRAgQIAAAQIECBBoBIT1BsQmAQIECBAgQIAAgbkICOtzWQnzIECAAAECBAgQINAICOsNiE0CBAgQIECAAAECcxEQ1ueyEuZBgAABAgQIECBAoBEQ1hsQmwQIECBAgAABAgTmIiCsz2UlzIMAAQIECBAgQIBAIyCsNyA2CRAgQIAAAQIECMxF4OLD+kuXSnniq6V8+VE/DNSAGlADakANqAE1oAbmXwORXSPDdnhdfFiPi33mW6X85Qt+GKgBNaAG1IAaUANqQA3MvwYiu0aG7fC6+LAed4+KkoEaUANqQA2oATWgBtTAkmogMmyHl7C+pCIxV/+jpgbUgBpQA2pADaiBPjUgrPtajP/HQQ2oATWgBtSAGlADamCmNSCsz3Rh3L32uXvlzl0NqAE1oAbUgBqYUw0I68K6O2k1oAbUgBpQA2pADaiBmdaAsD7ThZnTHZ25eMKgBtSAGlADakANqIE+NSCsC+vupNWAGlADakANqAE1oAZmWgPC+kwXxt1rn7tX7tzVgBpQA2pADaiBOdWAsC6su5NWA2pADagBNaAG1IAamGkNCOszXZg53dGZiycMakANqAE1oAbUgBroUwPCurDuTloNqAE1oAbUgBpQA2pgpjUgrM90Ydy99rl75c5dDagBNaAG1IAamFMNCOvCujtpNaAG1IAaUANqQA2ogZnWgLA+04WZ0x2duXjCoAbUgBpQA2pADaiBPjUgrB84rD/ySCkPPFDKHXeW8jPvOPmJz7Evjil0BmpADagBNaAG1IAaUAO71oCwfsCw/uCDpfzU27b/RJtdF2eB7X703HfL7b/w3nLPv/qXB7nOhx96cNNf9HvMbq7tgP8dLvC/G+tv/dWAGlADamC0BoT1AxXHz79ne0ivQ3y0PUOgeOorv1/+9t/6m+Wv/NiP7fwTYXfbWOcNwxHKI5xnmH7+mafLDW9/e5kaN0P90LXE+dFPtpnqa9v1OXag+j5DvbJnrwbUgBpQA2rgADUgrB8A8cZ37R7UM7THOXsGoAjrN7z9H5R4nzp316D7h4/93024PsuT8KFgPrRvaK5j83v8t7+wmU/0Ez+3vPtnd7reoTHsO0Bt71mjzJmrATWgBtSAGjhwDQjr5wT95V/ZP6hnYI9z9whD1yOsx/i7Bux2rhGs40l/ffOwa1+7hPXof+jJe+6L4+2cbJ+znveoR9as1YAaUANqQA1cQA0I6+dA/uIj1wb19/5CKfGTgTzfx/ZHHzsGpAjFh/4aTI4dwTe/fpL7tr1n2M7gvOt7hvs8P77iUt+E5Dy+8/U/3ny9pv6KTcwn/h+As/y/ANuuxbFz/DewY+0yZqwG1IAaUANq4Iw1IKyfES5CytAvlN50cyl/8vVSHn74amCPz9/4einvvvnqvgzxe/zCaR1qpwq+DsMZgOOp99h50SYC965BeKzPszxZr68r+433CPbtDYSwfo56FaxH63/svwv71ZsaUANqQA10rwFh/RxF+NF/fm34jhAeT9H/7NulfPI/n/z82TOl/LP3DreNPnYMUXWo3fWcaLfLL5FGCI6wnk++t/WfgTwCddsuj039Umh9M1FfV4b1eKJ+37+9Z/N0PW8y6nPacW2fo453rD/GjNWAGlADakANdKgBYf0c6O+4YTiAR2CPv63+/75/8vOhO8bbRR87hqUItRGmh0LyWB+7BNw6YO/y5DrGH3sCX/c1NqfYX8+rDetx0xBP1L/5lT849Qum2fc+179tDo6do/Z3rFnGjNWAGlADakANnLMGhPVzAG4L67fdVsr3nj35ic/5tZf2fY+wHsUeT6x3/X54tmu/993+RxPhN5+o15/bdrts73pDsS2s51df6jYxdh3qd5mLNueobWF855todabO1IAaUANq4LrWgLB+jgIb+xrMu28q5ck/KuW/fvrkJz7Hvjaox/YeX4O5HoWQgTiflLfb7Zj5dDtvBM7yHmH82W+c/ALp2C+YxjgxdhzPucXnqRuPdr62z1HfArvArgbUgBpQA2qgfw0I6+cIM0O/YPr3f7qU33m0lEf+z9VwHp9jXxxrA/sev2C6a/DMwB3hduqcoSfpQ/um+snjMWYE+Kmx6znGE/P4e+oR0GPsfLIefeZ2/nWYqX5zHt7PUdf+h3nyvxv1pb7UgBpQA2rgwmpAWD9HsQ396cYPf7iU++8v5R++82owj8+x7yN3X92XoX2HP92YXy05y1Ps+pwIvnVh5VPyfHJdH4t9Q/vrNu3n7O/zD/+PU78Y2raL7TqsZyAfCuvZ5z/92X/yxld1hvqz7xx1LJyf+u9CLaklNaAG1IAamFUNCOvnLMgL/EeRdi2cOghvOyfCeP0Uu26bIbkN+HWb+nOOmQE/zsvPdbuhz/k0fmwuedxT9XPWqlAulKsBNaAG1IAaWF4NCOsHCEA3vuvaJ+b55HzsPc45438wEYLzF0KH+sjgvC3cxrFtfUS/Ebin2kS7HK/9PnmMMRXY86Yg27aBPfuO/4egPTZ07fYdoJ7PWJfs2asBNaAG1IAauA41IKwfCPXn37N7YI+25wxE+dWYNiBHv3UAHhongnGE312emkfbbSE5+oi+xkL51PlxXl5DBvMcL68jjsfneM9jQ9dl34Fq+Zy1aR2sgxpQA2pADaiBA9aAsH5AzKFfOG2frF+HXyiN/yAi9NbfTx8Ltdlul6Ce/6HFOe0T9rxZaPfnOfV7hu52TtFvuy/aPnT/fZsbiaGbgLPMv56Lzwesd6H+3Dfd6lE9qgE1oAbUwGQNCOsHLpJHHinlgQdO/lGkn3lHKfET/0BS7ItjHQPO1FPubXPLp/H/+9c+uwnYu4T0tr8M7XHunR+49Zqgnu3jRmJb/3mjEME9z/F+4DruWKfW0lqqATWgBtSAGqhqQFivMAQU4VcNqAE1oAbUgBpQA2pgTjUgrAvr7l7VgBpQA2pADagBNaAGZloDwvpMF2ZOd3Tm4gmDGlADakANqAE1oAb61ICwLqy7k1YDakANqAE1oAbUgBqYaQ0I6zNdGHevfe5euXNXA2pADagBNaAG5lQDwrqw7k5aDagBNaAG1IAaUANqYKY1IKzPdGHmdEdnLp4wqAE1oAbUgBpQA2qgTw0I68K6O2k1oAbUgBpQA2pADaiBmdaAsD7ThXH32ufulTt3NaAG1IAaUANqYE41IKwL6+6k1YAaUANqQA2oATWgBmZaA8L6TBdmTnd05uIJgxpQA2pADagBNaAG+tSAsC6su5NWA2pADagBNaAG1IAamGkNCOszXRh3r33uXrlzVwNqQA2oATWgBuZUA8K6sO5OWg2oATWgBtSAGlADamCmNbCasP7EV0t55lvuFOd0p2gu6lENqAE1oAbUgBpQA+M1ENk1MmyH15sufMyXLp1cbNyd+GGgBtSAGlADakANqAE1MPcaiKAeGbbD6+LDeoeLNCQBAgQIECBAgACBJQoI60tcNXMmQIAAAQIECBBYhYCwvopldpEECBAgQIAAAQJLFBDWl7hq5kyAAAECBAgQILAKAWF9FcvsIgkQIECAAAECBJYoIKwvcdXMmQABAgQIECBAYBUCwvoqltlFEiBAgAABAgQILFFAWF/iqpkzAQIECBAgQIDAKgSE9VUss4skQIAAAQIECBBYooCwvsRVM2cCBAgQIECAAIFVCAjrq1hmF0mAAAECBAgQILBEAWF9iatmzgQIECBAgAABAqsQENZXscwukgABAgQIECBAYIkCwvoSV82cCRAgQIAAAQIEViEgrK9imV0kAQIECBAgQIDAEgWE9SWumjkTIECAAAECBAisQkBYX8Uyu0gCBAgQIECAAIElCgjrS1w1cyZAgAABAgQIEFiFgLC+imV2kQQIECBAgAABAksUENaXuGrmTIAAAQIECBAgsAoBYX0Vy+wiCRAgQIAAAQIEliggrC9x1cyZAAECBAgQIEBgFQLC+iqW2UUSIECAAAECBAgsUUBYX+KqmTMBAgQIECBAgMAqBIT1VSyziyRAgAABAgQIEFiigLC+xFUzZwIECBAgQIAAgVUICOurWGYXSYAAAQIECBAgsEQBYX2Jq2bOBAgQIECAAAECqxAQ1lexzC6SAAECBAgQIEBgiQLC+hJXzZwJECBAgAABAgRWISCsr2KZXSQBAgQIECBAgMASBYT1Ja6aORMgQIAAAQIECKxCQFhfxTK7SAIECBAgQIAAgSUKCOtLXDVzJkCAAAECBAgQWIWAsL6KZXaRBAgQIECAAAECSxQQ1pe4auZMgAABAgQIECCwCgFhfRXL7CIJECBAgAABAgSWKCCsL3HVzJkAAQIECBAgQGAVAsL6KpbZRRIgQIAAAQIECCxRQFhf4qqZMwECBAgQIECAwCoEhPVVLLOLJECAAAECBAgQWKKAsL7EVTNnAgQIECBAgACBVQgI66tYZhdJgAABAgQIECCwRAFhfYmrZs4ECBAgQIAAAQKrEBDWV7HMLpIAAQIECBAgQGCJAsL6ElfNnAkQIECAAAECBFYhIKyvYpldJAECBAgQIECAwBIFhPUlrpo5EyBAgAABAgQIrEJAWF/FMrtIAgQIECBAgACBJQoI60tcNXMmQIAAAQIECBBYhYCwvopldpEECBAgQIAAAQJLFBDWl7hq5kyAAAECBAgQILAKAWF9FcvsIgkQIECAAAECBJYoIKwvcdXMmQABAgQIECBAYBUCwvoqltlFEiBAgAABAgQILFFAWF/iqpkzAQIECBAgQIDAKgSE9VUss4skQIAAAQIECBBYooCwvsRVM2cCBAgQIECAAIFVCAjrq1hmF0mAAAECBAgQILBEAWF911X74pdK+bt/r5Qnn9z1DO0IECBAgAABAgQInEtAWN+VL0L6e9938nPp0q5nlfIvfmn8nO9/v5QbbiwlbgSGXg9+avxYto82Ma995pTnHuo95hDXEddz3lc4v/MfuSk6r6PzCRAgQIAAgaMQWHdYz7AcYXOXVwTJeLo+Fq7bPob6j/AeP/HK40P9Rfj+1/eU8lNv2z7etrCe840+zvIz9P8kDP0/DNtuSGqTmOvYPNJg2/XUfflMgAABAgQIEFiBgLAeT4QjIEY4jifUY2Fy1/3RV77aYJvhPNvkdgbVPK9+jyCcoTnO23Ue+bQ9ryvHjL7rp9djc4g2N9187dPyoWA+tK++hvwcc8h55b52/Oirnmu2806AAAECBAgQWKGAsJ5hvV38oWDZtmnDeHs8gmf85KsOybGvDarZrn6PsH3HnaV87vP13qufp+Y5FdbzeHvDENtjwboN04cK6+kxdkNSW14V8IkAAQIECBAgcLQCwvpYWG+D9VAJbAvKGTzrEBztx4JovX+fULptDjHnDON1//E5n9ZHmxivDeCx3c5j1/m3Y2Xf8R43AGET77FdO8V2Pa+YW/gd6vvwQ2toHwECBAgQIEBgxgLC+lhYz5Bbh+16IfN4BtH6WHyO/RFa8/w6lGbboX15rH2Pm4cIsm0QHtvOgDs0z/ZGJOZaB/Ohc7bNNc5tn8K384/tGGcsrMf/cxDHarM4R1gfkrSPAAECBAgQWIlAv7Ce4S/DZobLgM9gWgfI2B9hr33ymqF4qJ84J/rIY20QzDlEH0OvDJcRXttXhMh2Ltkm+63HGwqd2S4DfZ6fYTnnXc9v7Jw8N97rsbKvuo82rEf7OmwPjRGO7XrkmLG/Pj/3t+/pGf1H+9jOsbKP+MpP7ZHnDK1B279tAgQIECBAgMCRCfQJ6xnG6wAZYa0O7BHY6jCc59RBLs6p28Ti3HvfSQDMkFqHyDi3DtAZFOt51As8NGYej7HjZ+gV/WXQjjFzLm37HL++prq/PK+dX56X/cX57XWm5VAfbVhvt6O/PD/mE+NF//E+9Ip51OMPtYl9cR3ZT7zHdl5Lrkv0VV9vbOd1jvVrPwECBAgQIEDgSAX6hPWhcJehrQ1qGQLb0BaBsg3q9SKNHa/HHhqz7iM+Z8CM0Juvsb7jeAb8hx8+CbzRNs6Nm4g4Vr9y/Ggz9GqDdpxf/4WWNInz06ntJ/vIm4d8r+2yTc5j6JrbfnM7z425TL2y37juNqwPjZ191zUxNYbjBAgQIECAAIEjErj4sD4WUDOY1aEv28a++klvLEDsGwuoebzuKxctgl/2lf1vC4PZJvvKMJ7hMvvN99gfbfO8sXbRfqpNmtTzy/HrffF5zGKsj/YfHoo+Yt5D7WN/hvyzvodDzjOueyys1zck8bmdZzp7J0CAAAECBAisQODiw3qGzbHQl6E48SPkRds69GagbNvmOXl8bIx9wnr0mXOOf6Qozq2Dco7ZvtdBPM8fm0+7P59653W04+X+NMmg3c4htrNt3cdQCM59H7/36s3MUH/tvry2sZuFun3MIdplWI/5107Rtt7O9nENXgQIECBAgACBFQpcfFivw9gUeLZ9983XBsgI6mNhPfqdOh5tsv86yI7NKdpEqM4gPdYu92ffGahzf/0+1aYO2hmK22C/bTvGrvvIsTOYx3v9CrPob5tr3T4+p3O8b7vWaJvh+0+fOVnPobCefcYT9bDeZW3aOdkmQIAAAQIECByJwMWH9QyPuwTCaFM/ia3PiRCXT8iHFmPqeJyTYXkqEMbxCLH1nxecOif73hZgp9qk1baxMsSPjVP3kW3rgJ83HzmXODbWV+sc88o1iPNzrdp27XY9j6Gx8vguT+vbvm0TIECAAAECBI5I4OLDeuBFQItQ2IbQ/Esu2SaDZGxngMtwlyE0w2IuSvaR4bMNfHF+9pFt2nlkX7E/5jnURwbe7CvPyffse+x4tJtqk9cY84jrj19arV95fs6lvY4YO4/V1xF91d8Fz3HCMn8xNvre9oqx6vWJttFv/QuwY+fnTVjc/MS8WqN0Hzo21qf9BAgQIECAAIEjFOgT1gMyw3cdJjNsZsjM7YSPkNcGxNhX91E/fc8QWh+vg3eG3Xqc+py6r5xD/Z7zjP7bttl3G0Tr86fa1HNpb0py7Bw3t+vrq8eqP9dhPedQ9x8e9XZ97lD7+niu69h1x/56DWOs8Mv2cT15vD1Wj+MzAQIECBAgQGAFAv3C+txw62CcwXHXOWaAjdCZwT/3betrqk0G3zo457464OY8d72GDOvxy6TRT91/9hWhud5f953XmG2H3uP8do5h0e6Lczd/1vKPT8arx4xjeU7elAyNZR8BAgQIECBA4EgFhPXrtbBTQTzGnWoTATlCarTLkN6G2aH5R8DNp9NDx7OvCM7bnsRHKI/xPnz3ScjeJaS342Voz/ehm5d0GOs/bxR2ufZ2fNsECBAgQIAAgQULCOsLXjxTJ0CAAAECBAgQOG4BYf2419fVESBAgAABAgQILFhAWF/w4pk6AQIECBAgQIDAcQsI68e9vq6OAFxdWZ0AAAuuSURBVAECBAgQIEBgwQLC+oIXz9QJECBAgAABAgSOW0BYP+71dXUECBAgQIAAAQILFhDWF7x4pk6AAAECBAgQIHDcAsL6ca+vqyNAgAABAgQIEFiwgLC+4MUzdQIECBAgQIAAgeMWENaPe31dHQECBAgQIECAwIIFhPUFL56pEyBAgAABAgQIHLeAsH7c6+vqCBAgQIAAAQIEFiwgrC948UydAAECBAgQIEDguAWE9eNeX1dHgAABAgQIECCwYAFhfcGLZ+oECBAgQIAAAQLHLSCsH/f6ujoCBAgQIECAAIEFCwjrC148UydAgAABAgQIEDhuAWH9uNfX1REgQIAAAQIECCxYQFhf8OKZOgECBAgQIECAwHELCOvHvb6ujgABAgQIECBAYMECwvqCF8/UCRAgQIAAAQIEjltAWD/u9XV1BAgQIECAAAECCxYQ1he8eKZOgAABAgQIECBw3ALC+nGvr6sjQIAAAQIECBBYsICwvuDFM3UCBAgQIECAAIHjFhDWj3t9XR0BAgQIECBAgMCCBYT1BS+eqRMgQIAAAQIECBy3gLB+3Ovr6ggQIECAAAECBBYsIKwvePFMnQABAgQIECBA4LgFhPXjXl9XR4AAAQIECBAgsGABYX3Bi2fqBAgQIECAAAECxy0grB/3+ro6AgQIECBAgACBBQsI6wtePFMnQIAAAQIECBA4bgFh/bjX19URIECAAAECBAgsWEBYX/DimToBAgQIECBAYB+Bp14o5R//r1J+8iE/+xiEWdj1eAnrPdSNSYAAAQIECBDoIBCh862fFtT3CerRNszCrsdLWO+hbkwCBAgQIECAQAeBfUOq9qdvbDosWRHWe6gbkwABAgQIECDQQUD4Ph2+9/XosGTCeg90YxIgQIAAAQIEegjsG061Px3ue6yZJ+s91I1JgAABAgQIEOggIHyfDt/7enRYMk/We6AbkwABAgQIECDQQ2DfcKr96XDfY808We+hbkwCBAgQIECAQAcB4ft0+N7Xo8OSebLeA92YBAgQIECAAIEeAvuGU+1Ph/sea+bJeg91YxIgQIAAAQIEOggI36fD974eHZbMk/Ue6MYkQIAAAQIECPQQ2Decan863PdYM0/We6gbkwABAgQIECDQQeB6hu+3PPh6+fGP/6DE+9g4u7Spz920/4/Plbd88vJon3X76/25w5J5st4D3ZgECBAgQIAAgR4C1zPM3v3o6+V7l14vd/3m86Ph+sO/fal878XXyke++OpO4fvuR6+UF16+Uj7+2AvlJx54sfzkp65sbgj+2se+VaZ+/sZ/enmnMfYx6bFmnqz3UDcmAQIECBAgQKCDwD7BdN+29/xeKS+8XMrl16+Uex//4TWBPcLzUz+4vLnqzz51+uslY2N99HdK+epzJ1CPffuVcstvvFqee2k3uF/9xmvC+m5UWhEgQIAAAQIECMxBYCwUH2p/hOtLlyOwl3L/H1wNy/F1ls88cZKydw3qEe7f/O+/u/lazSe+VsqlV0uJ93qu8bQ9vnoTT9xzfzyNv3T5ShHW51Bx5kCAAAECBAgQILCzQAbaQ75HEI9QnV9Lia+sxFddHv7aD9/Yd+fnniuXLr++ebKe7eL9r9/3whshu51ThO0I3RG+22O5/eXvvLb56s0tv3W1jbC+czloSIAAAQIECBAgMCeBDLmHfN88TX/1bFf5rb84/aS8npewfmLqO+tnqy1nESBAgAABAgQWJ1CH4Yv4HIE7vsP+ia+M/4WYsXnUYT2+ElM/kc/Pjz3zo81T/Jv++7Ob4/GE/+4vnTyRj/PH+j7r/h4LLqz3UDcmAQIECBAgQKCDwFlD6lnPO1RYj++57/KK77Xf/1XfWd/FShsCBAgQIECAAIGZCZw1dJ/1vEOF9Xb8+J78vY+/uPlF1vhzkb6zPrNCMx0CBAgQIECAAIH9BdrQe97t9pdL8+sp+R6/ZHr5tZO/k5772vexXzKtvwZzap6fulLu+sKLm18+/YuXr/gF0/3LwBkECBAgQIAAAQJzFDgVeh8a/+XOXdud55dL02fsl0wHw/qnrpSf+7W/3AT0x58txV+DSUXvBAgQIECAAAECixfYNYQfot1HHnl58/Q7/ub6fb/30qm/hb5L/21Yj6f4N//q85ugngFfWF98SboAAgQIECBAgACBFNglJB+izVs+ebk89u2XN98pj3+BNL5X/nO//uJef52lDuvR312/+fwm/GdQj3kK67my3gkQIECAAAECBBYvcIggPtVHBOt7H//hJqjHV1WifQTsbz7/2tZ/BKnt942w/qXX3vhl0jqoR3thffEl6QIIECBAgAABAgRSoA3Eh97+iQdeLPEvmMZXX+pgfctvlfLcSyeBPf4WenylZWrsDOubP8X4aikZ/Ovzvvznr/oF01xc7wQIECBAgAABAssWqIPuIT/nP1r02Ldf2QANBesM7Jcul3Ln554rP/7xH2z9HnuG9bsfvXIq2McNQf5Fmad+cLk8d+lKib7zeqL9pctXSpyf+w713mP1/aNIPdSNSYAAAQIECBDoIHCo0Jr9xFde3vzv/rx85omXNlcT/yhR/IWYPD70nv/A0fcuXSnxL4+OhfaxsB43AvXrs39SNn1kgI8bgQjrMc7Q+OfZV497UZ+F9YuSNg4BAgQIECBAoLPAeYLq0Lmf+Fopr75eyi4hvT0/Q3d8PaZ+Mp7tImzv0m8+sa9p66/gZH+HeK/HuKjPwvpFSRuHAAECBAgQINBZ4BCBdc199Fg+Yb2HujEJECBAgAABAh0E1hy0D3HtHZasCOs91I1JgAABAgQIEOggcIjAuuY+OiyZsN4D3ZgECBAgQIAAgR4Caw7ah7j2HmvmyXoPdWMSIECAAAECBDoIHCKwrrmPDkvmyXoPdGMSIECAAAECBHoIrDloH+Lae6yZJ+s91I1JgAABAgQIEOggcIjAuuY+OiyZJ+s90I1JgAABAgQIEOghsOagfYhr77Fmnqz3UDcmAQIECBAgQKCDwCEC65r76LBknqz3QDcmAQIECBAgQKCHwLt+/fXy1k+XsubAfZZrD7Ow6/HyZL2HujEJECBAgAABAh0Evvadlzah8yyBdc3nRFAPux4vYb2HujEJECBAgAABAh0ELl26VF588UU/ZzAIux4vYb2HujEJECBAgAABAh0EXnnlFUH9DEE9bnDCrsdLWO+hbkwCBAgQIECAQCeB1157bRM8I3z62c0gzHq9hPVe8sYlQIAAAQIECBAgMCEgrE8AOUyAAAECBAgQIECgl4Cw3kveuAQIECBAgAABAgQmBIT1CSCHCRAgQIAAAQIECPQSENZ7yRuXAAECBAgQIECAwISAsD4B5DABAgQIECBAgACBXgLCei954xIgQIAAAQIECBCYEBDWJ4AcJkCAAAECBAgQINBLQFjvJW9cAgQIECBAgAABAhMCwvoEkMMECBAgQIAAAQIEegkI673kjUuAAAECBAgQIEBgQkBYnwBymAABAgQIECBAgEAvAWG9l7xxCRAgQIAAAQIECEwICOsTQA4TIECAAAECBAgQ6CUgrPeSNy4BAgQIECBAgACBCQFhfQLIYQIECBAgQIAAAQK9BIT1XvLGJUCAAAECBAgQIDAhIKxPADlMgAABAgQIECBAoJeAsN5L3rgECBAgQIAAAQIEJgSE9QkghwkQIECAAAECBAj0EhDWe8kblwABAgQIECBAgMCEgLA+AeQwAQIECBAgQIAAgV4CwnoveeMSIECAAAECBAgQmBAQ1ieAHCZAgAABAgQIECDQS0BY7yVvXAIECBAgQIAAAQITAsL6BJDDBAgQIECAAAECBHoJCOu95I1LgAABAgQIECBAYIvA008/Xd505513ljvuuKN86EMfKrfffvvm54Mf/GC57bbbNj8f+MAHyq233vrGz/vf//5y6J/3ve99xQ8DNaAG1IAaUANqQA2ogbnUwKHzbvRXZ+rI2Jm3I3tnDo9MHtk8Mvpdd91V/j+JFCjXrfRi3wAAAABJRU5ErkJggg==;" vertex="1" parent="1">
          <mxGeometry x="10" y="860" width="565.98" height="247" as="geometry" />
        </mxCell>
        <mxCell id="ntTl1n4FJI3rc7qS_6Iw-25" value="批量导出行政班学生名单" style="rounded=0;whiteSpace=wrap;html=1;" vertex="1" parent="1">
          <mxGeometry x="25" y="880" width="155" height="40" as="geometry" />
        </mxCell>
      </root>
    </mxGraphModel>
  </diagram>
</mxfile>
